<?xml version="1.0" encoding="utf-8"?>
<!-- Generator: Adobe Illustrator 24.3.0, SVG Export Plug-In . SVG Version: 6.00 Build 0)  -->
<svg version="1.1" id="Capa_1" xmlns="http://www.w3.org/2000/svg" xmlns:xlink="http://www.w3.org/1999/xlink" x="0px" y="0px"
	 viewBox="0 0 270 150" style="enable-background:new 0 0 270 150;" xml:space="preserve">
<style type="text/css">
	.st0{enable-background:new    ;}
</style>
<g class="st0">
	<path d="M78.4,98.3l-3.9,0.2l-0.1-0.1v-0.7l-0.1,0c-0.3,0.3-0.6,0.5-1,0.7c-0.4,0.2-0.9,0.3-1.3,0.3c-1.1,0-1.9-0.4-2.6-1.2
		c-0.7-0.8-1-1.8-1-3c0-1.1,0.4-2,1.1-2.8s1.7-1.2,2.8-1.2c0.4,0,0.8,0,1.2,0.1c0.4,0.1,0.7,0.2,0.9,0.3v-2.6c0-0.2,0-0.4-0.1-0.5
		s-0.2-0.3-0.3-0.4c-0.2-0.1-0.4-0.2-0.6-0.2s-0.5-0.1-0.7-0.1v-0.6l4.2-0.2l0.1,0.1v10.2c0,0.2,0,0.4,0.1,0.5
		c0.1,0.1,0.2,0.2,0.3,0.3c0.1,0.1,0.3,0.1,0.5,0.1c0.2,0,0.4,0,0.5,0V98.3z M74.5,97v-4.4c0-0.1-0.1-0.3-0.2-0.4s-0.2-0.3-0.3-0.4
		c-0.1-0.1-0.2-0.2-0.4-0.3c-0.2-0.1-0.4-0.1-0.6-0.1c-0.5,0-0.9,0.3-1.3,0.9c-0.3,0.6-0.5,1.4-0.5,2.5c0,0.4,0,0.8,0.1,1.1
		c0.1,0.3,0.2,0.6,0.3,0.9c0.2,0.3,0.3,0.5,0.6,0.6s0.5,0.2,0.9,0.2c0.3,0,0.6-0.1,0.8-0.2C74.1,97.3,74.3,97.2,74.5,97z"/>
	<path d="M87.4,96.6c-0.2,0.3-0.4,0.6-0.7,0.8s-0.6,0.5-0.9,0.7c-0.3,0.2-0.7,0.3-1.1,0.4c-0.4,0.1-0.8,0.2-1.2,0.2
		c-0.8,0-1.4-0.1-2-0.3c-0.6-0.2-1-0.5-1.4-0.9c-0.4-0.4-0.6-0.8-0.8-1.3s-0.3-1-0.3-1.6c0-0.5,0.1-1,0.3-1.5s0.5-0.9,0.8-1.3
		c0.4-0.4,0.8-0.7,1.3-0.9s1.1-0.3,1.8-0.3c0.7,0,1.3,0.1,1.8,0.3s0.9,0.4,1.2,0.7c0.3,0.3,0.5,0.6,0.6,1.1c0.1,0.4,0.2,0.8,0.2,1.3
		v0.5h-5.3c0,1.1,0.2,1.9,0.6,2.4c0.4,0.6,1.1,0.8,2,0.8c0.5,0,0.9-0.1,1.3-0.4s0.7-0.6,1-1L87.4,96.6z M84.4,93.7c0-0.3,0-0.6,0-1
		s-0.1-0.6-0.2-0.8c-0.1-0.2-0.2-0.4-0.4-0.6c-0.2-0.1-0.3-0.2-0.6-0.2c-0.4,0-0.7,0.2-1,0.6c-0.2,0.4-0.4,1-0.4,1.9L84.4,93.7z"/>
	<path d="M102.4,98.3l-3.7,0.2l-0.1-0.1v-1h0c-0.2,0.2-0.3,0.3-0.5,0.5s-0.4,0.3-0.6,0.4c-0.3,0.1-0.5,0.2-0.8,0.3
		c-0.2,0.1-0.6,0.1-1,0.1c-0.8,0-1.4-0.2-1.8-0.7s-0.6-1.1-0.6-2v-3.5c0-0.2,0-0.4-0.1-0.5c-0.1-0.1-0.2-0.2-0.3-0.3
		c-0.1-0.1-0.2-0.1-0.4-0.2c-0.2,0-0.3-0.1-0.5-0.1v-0.6l3.8-0.2l0.1,0.1V96c0,0.5,0.1,0.9,0.3,1.2c0.2,0.3,0.5,0.4,0.8,0.4
		c0.4,0,0.7-0.1,1-0.3s0.5-0.4,0.6-0.6v-4.2c0-0.2,0-0.3-0.1-0.5s-0.2-0.3-0.3-0.3c-0.1-0.1-0.2-0.1-0.4-0.1c-0.2,0-0.4,0-0.5,0
		v-0.6l3.8-0.2l0.1,0.1v6c0,0.2,0,0.3,0.1,0.5c0.1,0.1,0.2,0.2,0.3,0.3c0.1,0.1,0.2,0.1,0.4,0.1s0.3,0,0.5,0V98.3z"/>
	<path d="M113.3,98.5h-4.7v-0.6c0.1,0,0.2,0,0.4,0s0.2,0,0.3-0.1c0.1-0.1,0.2-0.1,0.2-0.2s0.1-0.3,0.1-0.5v-3.7
		c0-0.5-0.1-0.9-0.3-1.2c-0.2-0.3-0.5-0.4-0.9-0.4c-0.2,0-0.4,0-0.6,0.1c-0.2,0.1-0.4,0.2-0.5,0.3c-0.2,0.1-0.3,0.2-0.4,0.3
		c-0.1,0.1-0.2,0.2-0.2,0.3V97c0,0.2,0,0.3,0.1,0.5s0.1,0.2,0.3,0.3c0.1,0,0.2,0.1,0.3,0.1s0.2,0.1,0.4,0.1v0.6H103v-0.6
		c0.1,0,0.3,0,0.4,0s0.2,0,0.3-0.1c0.2-0.1,0.3-0.1,0.3-0.3s0.1-0.3,0.1-0.5v-4.5c0-0.2,0-0.3-0.1-0.5s-0.2-0.3-0.3-0.4
		c-0.1-0.1-0.2-0.1-0.4-0.2s-0.3-0.1-0.5-0.1v-0.6l3.7-0.2l0.1,0.1v1.1h0c0.1-0.1,0.3-0.3,0.5-0.5s0.4-0.3,0.6-0.4
		c0.2-0.1,0.4-0.2,0.8-0.3s0.6-0.1,1-0.1c0.8,0,1.5,0.2,1.9,0.7s0.6,1.1,0.6,1.9V97c0,0.2,0,0.3,0.1,0.5s0.2,0.2,0.3,0.3
		c0.1,0,0.2,0.1,0.3,0.1s0.3,0.1,0.4,0.1V98.5z"/>
	<path d="M123,98.3c-0.2,0.1-0.5,0.2-0.8,0.3c-0.3,0.1-0.6,0.1-1,0.1c-0.6,0-1.1-0.1-1.4-0.3s-0.5-0.5-0.6-0.8h0
		c-0.2,0.2-0.3,0.3-0.5,0.5c-0.2,0.1-0.3,0.2-0.5,0.3c-0.2,0.1-0.5,0.2-0.7,0.3c-0.2,0.1-0.5,0.1-1,0.1c-0.6,0-1.1-0.2-1.5-0.5
		s-0.6-0.8-0.6-1.4c0-0.3,0-0.6,0.1-0.9c0.1-0.2,0.2-0.4,0.4-0.6c0.2-0.2,0.3-0.3,0.5-0.4s0.4-0.2,0.7-0.3c0.5-0.2,1-0.4,1.7-0.5
		c0.7-0.2,1.1-0.4,1.4-0.5v-0.8c0-0.1,0-0.3,0-0.5s-0.1-0.4-0.1-0.5c-0.1-0.2-0.2-0.3-0.3-0.4s-0.4-0.2-0.6-0.2
		c-0.2,0-0.4,0-0.6,0.1c-0.2,0.1-0.3,0.1-0.4,0.2c0,0.1,0.1,0.3,0.1,0.5s0.1,0.4,0.1,0.6c0,0.1,0,0.2-0.1,0.3s-0.1,0.2-0.2,0.3
		c-0.1,0.1-0.3,0.2-0.4,0.2c-0.1,0.1-0.4,0.1-0.7,0.1c-0.4,0-0.8-0.1-1-0.3s-0.3-0.5-0.3-0.8c0-0.3,0.1-0.6,0.3-0.8s0.5-0.4,0.8-0.6
		c0.3-0.2,0.7-0.3,1.1-0.4s0.8-0.1,1.2-0.1c0.5,0,1,0,1.4,0.1s0.8,0.2,1.1,0.4c0.3,0.2,0.6,0.4,0.8,0.8s0.3,0.8,0.3,1.4
		c0,0.6,0,1.3,0,2.1s0,1.3,0,1.6c0,0.2,0,0.4,0.1,0.6s0.2,0.2,0.3,0.3c0.1,0,0.2,0.1,0.4,0.1s0.4,0,0.5,0V98.3z M119.1,94.3
		c-0.3,0.1-0.6,0.2-0.9,0.3s-0.5,0.3-0.7,0.4c-0.2,0.1-0.3,0.3-0.5,0.6c-0.1,0.2-0.2,0.5-0.2,0.8c0,0.4,0.1,0.7,0.3,0.9
		s0.4,0.3,0.7,0.3c0.3,0,0.5-0.1,0.7-0.2c0.2-0.1,0.3-0.3,0.5-0.4L119.1,94.3z"/>
	<path d="M132.1,98.8c-0.7,0-1.4-0.1-1.9-0.3s-1-0.5-1.4-0.9c-0.4-0.4-0.6-0.8-0.8-1.3s-0.3-1.1-0.3-1.6c0-0.5,0.1-1.1,0.3-1.5
		s0.5-0.9,0.9-1.3c0.4-0.4,0.9-0.7,1.4-0.9s1.2-0.3,1.9-0.3c1,0,1.7,0.2,2.3,0.5s0.8,0.9,0.8,1.5c0,0.4-0.1,0.7-0.3,0.9
		s-0.5,0.3-1,0.3c-0.4,0-0.7-0.1-1-0.3s-0.4-0.4-0.4-0.7c0-0.3,0-0.5,0.1-0.8s0.1-0.4,0.1-0.6c-0.1-0.1-0.1-0.2-0.2-0.2
		s-0.2-0.1-0.4-0.1c-0.2,0-0.4,0.1-0.6,0.2s-0.4,0.3-0.5,0.6c-0.2,0.3-0.3,0.6-0.4,1s-0.1,1-0.1,1.6c0,0.9,0.2,1.7,0.7,2.2
		s1,0.9,1.6,0.9c0.6,0,1-0.1,1.4-0.4s0.6-0.6,0.9-1.1l0.6,0.4c-0.2,0.3-0.4,0.6-0.6,0.9s-0.5,0.5-0.8,0.7c-0.3,0.2-0.7,0.4-1,0.5
		S132.5,98.8,132.1,98.8z"/>
	<path d="M145.1,98.3c-0.2,0.1-0.5,0.2-0.8,0.3c-0.3,0.1-0.6,0.1-1,0.1c-0.6,0-1.1-0.1-1.4-0.3s-0.5-0.5-0.6-0.8h0
		c-0.2,0.2-0.3,0.3-0.5,0.5c-0.2,0.1-0.3,0.2-0.5,0.3c-0.2,0.1-0.5,0.2-0.7,0.3c-0.2,0.1-0.5,0.1-1,0.1c-0.6,0-1.1-0.2-1.5-0.5
		s-0.6-0.8-0.6-1.4c0-0.3,0-0.6,0.1-0.9c0.1-0.2,0.2-0.4,0.4-0.6c0.2-0.2,0.3-0.3,0.5-0.4s0.4-0.2,0.7-0.3c0.5-0.2,1-0.4,1.7-0.5
		c0.7-0.2,1.1-0.4,1.4-0.5v-0.8c0-0.1,0-0.3,0-0.5s-0.1-0.4-0.1-0.5c-0.1-0.2-0.2-0.3-0.3-0.4s-0.4-0.2-0.6-0.2
		c-0.2,0-0.4,0-0.6,0.1c-0.2,0.1-0.3,0.1-0.4,0.2c0,0.1,0.1,0.3,0.1,0.5s0.1,0.4,0.1,0.6c0,0.1,0,0.2-0.1,0.3s-0.1,0.2-0.2,0.3
		c-0.1,0.1-0.3,0.2-0.4,0.2c-0.1,0.1-0.4,0.1-0.7,0.1c-0.4,0-0.8-0.1-1-0.3s-0.3-0.5-0.3-0.8c0-0.3,0.1-0.6,0.3-0.8s0.5-0.4,0.8-0.6
		c0.3-0.2,0.7-0.3,1.1-0.4s0.8-0.1,1.2-0.1c0.5,0,1,0,1.4,0.1s0.8,0.2,1.1,0.4c0.3,0.2,0.6,0.4,0.8,0.8s0.3,0.8,0.3,1.4
		c0,0.6,0,1.3,0,2.1s0,1.3,0,1.6c0,0.2,0,0.4,0.1,0.6s0.2,0.2,0.3,0.3c0.1,0,0.2,0.1,0.4,0.1s0.4,0,0.5,0V98.3z M141.2,94.3
		c-0.3,0.1-0.6,0.2-0.9,0.3s-0.5,0.3-0.7,0.4c-0.2,0.1-0.3,0.3-0.5,0.6c-0.1,0.2-0.2,0.5-0.2,0.8c0,0.4,0.1,0.7,0.3,0.9
		s0.4,0.3,0.7,0.3c0.3,0,0.5-0.1,0.7-0.2c0.2-0.1,0.3-0.3,0.5-0.4L141.2,94.3z"/>
	<path d="M161.2,98.5h-4.6v-0.6c0.1,0,0.2,0,0.4,0s0.2,0,0.3-0.1c0.1-0.1,0.2-0.1,0.2-0.3c0-0.1,0-0.3,0-0.5v-3.6
		c0-0.5-0.1-0.9-0.3-1.2c-0.2-0.3-0.5-0.4-0.8-0.4c-0.2,0-0.4,0-0.6,0.1s-0.3,0.2-0.5,0.3c-0.2,0.1-0.3,0.2-0.4,0.3
		c-0.1,0.1-0.2,0.2-0.2,0.3V97c0,0.2,0,0.3,0.1,0.5s0.1,0.2,0.2,0.3c0.1,0,0.2,0.1,0.3,0.1s0.2,0.1,0.3,0.1v0.6h-4.4v-0.6
		c0.1,0,0.2,0,0.4,0s0.2,0,0.3-0.1c0.1-0.1,0.2-0.1,0.2-0.2c0-0.1,0-0.3,0-0.5v-3.6c0-0.5-0.1-0.9-0.3-1.2c-0.2-0.3-0.5-0.4-0.8-0.4
		c-0.2,0-0.4,0-0.6,0.1s-0.3,0.2-0.5,0.3c-0.2,0.1-0.3,0.2-0.4,0.3c-0.1,0.1-0.2,0.2-0.2,0.3V97c0,0.2,0,0.3,0.1,0.5
		s0.1,0.2,0.2,0.3c0.1,0,0.2,0.1,0.3,0.1s0.2,0.1,0.3,0.1v0.6h-4.7v-0.6c0.1,0,0.3,0,0.4,0s0.2,0,0.3-0.1c0.2-0.1,0.3-0.2,0.3-0.3
		s0.1-0.3,0.1-0.5v-4.5c0-0.2,0-0.3-0.1-0.5s-0.2-0.3-0.3-0.4c-0.1-0.1-0.2-0.1-0.4-0.2s-0.3-0.1-0.5-0.1v-0.6l3.7-0.2l0.1,0.1v1.1
		h0c0.1-0.1,0.3-0.3,0.5-0.5s0.4-0.3,0.6-0.4c0.2-0.1,0.4-0.2,0.7-0.3s0.6-0.1,1-0.1c0.6,0,1.1,0.1,1.5,0.4s0.7,0.6,0.8,1h0.1
		c0.2-0.1,0.3-0.3,0.6-0.5s0.4-0.3,0.6-0.5c0.2-0.1,0.5-0.2,0.8-0.3s0.7-0.1,1-0.1c0.8,0,1.4,0.2,1.8,0.7s0.6,1.1,0.6,2V97
		c0,0.2,0,0.3,0.1,0.5s0.2,0.2,0.3,0.3c0.1,0,0.2,0.1,0.3,0.1s0.3,0.1,0.4,0.1V98.5z"/>
	<path d="M171.4,94.7c0,1.1-0.4,2-1.1,2.8s-1.7,1.2-2.8,1.2c-0.5,0-0.9-0.1-1.2-0.2s-0.6-0.2-0.8-0.4h-0.1v2.2c0,0.2,0,0.3,0.1,0.5
		s0.2,0.2,0.3,0.3c0.1,0.1,0.3,0.1,0.6,0.2s0.5,0.1,0.6,0.1v0.6h-5.6v-0.6c0.1,0,0.3,0,0.5-0.1s0.3-0.1,0.4-0.1
		c0.2-0.1,0.3-0.2,0.3-0.3s0.1-0.3,0.1-0.5v-8c0-0.2-0.1-0.3-0.1-0.5s-0.2-0.2-0.3-0.3c-0.1-0.1-0.2-0.1-0.4-0.2s-0.3-0.1-0.5-0.1
		v-0.6l3.8-0.2l0.1,0.1v0.9l0.1,0c0.3-0.3,0.7-0.6,1.1-0.8c0.4-0.2,0.8-0.3,1.2-0.3c1.1,0,1.9,0.4,2.6,1.1
		C171.1,92.5,171.4,93.5,171.4,94.7z M168.6,94.7c0-0.4,0-0.8-0.1-1.1c-0.1-0.4-0.2-0.7-0.3-1c-0.1-0.3-0.3-0.5-0.6-0.7
		c-0.2-0.2-0.5-0.2-0.8-0.2c-0.3,0-0.6,0.1-0.8,0.2c-0.2,0.1-0.4,0.3-0.5,0.5v4.4c0,0.1,0.1,0.2,0.2,0.4c0.1,0.2,0.2,0.3,0.3,0.4
		c0.1,0.1,0.3,0.2,0.4,0.3s0.3,0.1,0.5,0.1c0.5,0,0.9-0.3,1.2-0.8C168.5,96.6,168.6,95.8,168.6,94.7z"/>
	<path d="M181.4,98.3c-0.2,0.1-0.5,0.2-0.8,0.3c-0.3,0.1-0.6,0.1-1,0.1c-0.6,0-1.1-0.1-1.4-0.3s-0.5-0.5-0.6-0.8h0
		c-0.2,0.2-0.3,0.3-0.5,0.5c-0.2,0.1-0.3,0.2-0.5,0.3c-0.2,0.1-0.5,0.2-0.7,0.3c-0.2,0.1-0.5,0.1-1,0.1c-0.6,0-1.1-0.2-1.5-0.5
		s-0.6-0.8-0.6-1.4c0-0.3,0-0.6,0.1-0.9c0.1-0.2,0.2-0.4,0.4-0.6c0.2-0.2,0.3-0.3,0.5-0.4s0.4-0.2,0.7-0.3c0.5-0.2,1-0.4,1.7-0.5
		c0.7-0.2,1.1-0.4,1.4-0.5v-0.8c0-0.1,0-0.3,0-0.5s-0.1-0.4-0.1-0.5c-0.1-0.2-0.2-0.3-0.3-0.4s-0.4-0.2-0.6-0.2
		c-0.2,0-0.4,0-0.6,0.1c-0.2,0.1-0.3,0.1-0.4,0.2c0,0.1,0.1,0.3,0.1,0.5s0.1,0.4,0.1,0.6c0,0.1,0,0.2-0.1,0.3s-0.1,0.2-0.2,0.3
		c-0.1,0.1-0.3,0.2-0.4,0.2c-0.1,0.1-0.4,0.1-0.7,0.1c-0.4,0-0.8-0.1-1-0.3s-0.3-0.5-0.3-0.8c0-0.3,0.1-0.6,0.3-0.8s0.5-0.4,0.8-0.6
		c0.3-0.2,0.7-0.3,1.1-0.4s0.8-0.1,1.2-0.1c0.5,0,1,0,1.4,0.1s0.8,0.2,1.1,0.4c0.3,0.2,0.6,0.4,0.8,0.8s0.3,0.8,0.3,1.4
		c0,0.6,0,1.3,0,2.1s0,1.3,0,1.6c0,0.2,0,0.4,0.1,0.6s0.2,0.2,0.3,0.3c0.1,0,0.2,0.1,0.4,0.1s0.4,0,0.5,0V98.3z M177.5,94.3
		c-0.3,0.1-0.6,0.2-0.9,0.3s-0.5,0.3-0.7,0.4c-0.2,0.1-0.3,0.3-0.5,0.6c-0.1,0.2-0.2,0.5-0.2,0.8c0,0.4,0.1,0.7,0.3,0.9
		s0.4,0.3,0.7,0.3c0.3,0,0.5-0.1,0.7-0.2c0.2-0.1,0.3-0.3,0.5-0.4L177.5,94.3z"/>
	<path d="M192.3,98.5h-4.7v-0.6c0.1,0,0.2,0,0.4,0s0.2,0,0.3-0.1c0.1-0.1,0.2-0.1,0.2-0.2s0.1-0.3,0.1-0.5v-3.7
		c0-0.5-0.1-0.9-0.3-1.2c-0.2-0.3-0.5-0.4-0.9-0.4c-0.2,0-0.4,0-0.6,0.1c-0.2,0.1-0.4,0.2-0.5,0.3c-0.2,0.1-0.3,0.2-0.4,0.3
		c-0.1,0.1-0.2,0.2-0.2,0.3V97c0,0.2,0,0.3,0.1,0.5s0.1,0.2,0.3,0.3c0.1,0,0.2,0.1,0.3,0.1s0.2,0.1,0.4,0.1v0.6H182v-0.6
		c0.1,0,0.3,0,0.4,0s0.2,0,0.3-0.1c0.2-0.1,0.3-0.1,0.3-0.3s0.1-0.3,0.1-0.5v-4.5c0-0.2,0-0.3-0.1-0.5s-0.2-0.3-0.3-0.4
		c-0.1-0.1-0.2-0.1-0.4-0.2s-0.3-0.1-0.5-0.1v-0.6l3.7-0.2l0.1,0.1v1.1h0c0.1-0.1,0.3-0.3,0.5-0.5s0.4-0.3,0.6-0.4
		c0.2-0.1,0.4-0.2,0.8-0.3s0.6-0.1,1-0.1c0.8,0,1.5,0.2,1.9,0.7s0.6,1.1,0.6,1.9V97c0,0.2,0,0.3,0.1,0.5s0.2,0.2,0.3,0.3
		c0.1,0,0.2,0.1,0.3,0.1s0.3,0.1,0.4,0.1V98.5z M190.5,87c-0.1,0.2-0.2,0.5-0.3,0.8s-0.3,0.5-0.5,0.8c-0.2,0.3-0.5,0.5-0.7,0.6
		s-0.5,0.2-0.8,0.2c-0.4,0-0.7,0-1-0.1s-0.5-0.2-0.7-0.3c-0.2-0.1-0.4-0.2-0.6-0.3s-0.4-0.1-0.6-0.1c-0.2,0-0.4,0.1-0.6,0.3
		s-0.3,0.5-0.6,0.9l-0.6-0.2c0.1-0.2,0.2-0.4,0.3-0.7s0.3-0.5,0.5-0.8c0.2-0.2,0.4-0.4,0.7-0.6s0.5-0.3,0.8-0.3c0.3,0,0.7,0,0.9,0.1
		s0.5,0.2,0.8,0.3c0.2,0.1,0.4,0.2,0.6,0.3s0.3,0.1,0.6,0.1c0.4,0,0.7-0.1,0.9-0.3s0.3-0.5,0.4-0.8L190.5,87z"/>
	<path d="M201.9,98.3c-0.2,0.1-0.5,0.2-0.8,0.3c-0.3,0.1-0.6,0.1-1,0.1c-0.6,0-1.1-0.1-1.4-0.3c-0.3-0.2-0.5-0.5-0.6-0.8h0
		c-0.2,0.2-0.3,0.3-0.5,0.5s-0.3,0.2-0.5,0.3c-0.2,0.1-0.5,0.2-0.7,0.3c-0.2,0.1-0.5,0.1-1,0.1c-0.6,0-1.1-0.2-1.5-0.5
		s-0.6-0.8-0.6-1.4c0-0.3,0-0.6,0.1-0.9c0.1-0.2,0.2-0.4,0.4-0.6c0.2-0.2,0.3-0.3,0.5-0.4s0.4-0.2,0.7-0.3c0.5-0.2,1-0.4,1.7-0.5
		c0.7-0.2,1.1-0.4,1.4-0.5v-0.8c0-0.1,0-0.3,0-0.5s-0.1-0.4-0.1-0.5c-0.1-0.2-0.2-0.3-0.3-0.4s-0.4-0.2-0.6-0.2
		c-0.2,0-0.4,0-0.6,0.1c-0.2,0.1-0.3,0.1-0.4,0.2c0,0.1,0.1,0.3,0.1,0.5c0.1,0.2,0.1,0.4,0.1,0.6c0,0.1,0,0.2-0.1,0.3
		s-0.1,0.2-0.2,0.3c-0.1,0.1-0.3,0.2-0.4,0.2c-0.1,0.1-0.4,0.1-0.7,0.1c-0.4,0-0.8-0.1-1-0.3s-0.3-0.5-0.3-0.8
		c0-0.3,0.1-0.6,0.3-0.8s0.5-0.4,0.8-0.6c0.3-0.2,0.7-0.3,1.1-0.4s0.8-0.1,1.2-0.1c0.5,0,1,0,1.4,0.1s0.8,0.2,1.1,0.4
		c0.3,0.2,0.6,0.4,0.8,0.8s0.3,0.8,0.3,1.4c0,0.6,0,1.3,0,2.1s0,1.3,0,1.6c0,0.2,0,0.4,0.1,0.6s0.2,0.2,0.3,0.3
		c0.1,0,0.2,0.1,0.4,0.1s0.4,0,0.5,0V98.3z M198.1,94.3c-0.3,0.1-0.6,0.2-0.9,0.3c-0.3,0.1-0.5,0.3-0.7,0.4
		c-0.2,0.1-0.3,0.3-0.5,0.6c-0.1,0.2-0.2,0.5-0.2,0.8c0,0.4,0.1,0.7,0.3,0.9s0.4,0.3,0.7,0.3c0.3,0,0.5-0.1,0.7-0.2
		c0.2-0.1,0.3-0.3,0.5-0.4L198.1,94.3z"/>
	<path d="M37.5,74.8c-0.2,0-0.3,0-0.4,0.1s-0.3,0.1-0.5,0.1c-0.2,0.1-0.4,0.2-0.4,0.3c-0.1,0.2-0.1,0.3-0.1,0.5v1.3
		c0,0.3,0,0.5,0,0.6c0,0.2,0,0.4,0,0.6c-0.5,0.3-1.3,0.6-2.3,0.9c-1,0.3-2,0.4-2.8,0.4c-0.8,0-1.6-0.1-2.3-0.4
		c-0.7-0.2-1.3-0.6-1.9-1.1c-0.5-0.5-0.9-1.1-1.3-1.8c-0.3-0.7-0.5-1.5-0.5-2.5c0-0.9,0.1-1.7,0.4-2.4c0.3-0.7,0.7-1.4,1.2-1.9
		c0.5-0.5,1.2-0.9,1.9-1.2c0.8-0.3,1.6-0.4,2.5-0.4c0.6,0,1.2,0.1,1.8,0.2c0.5,0.2,1,0.3,1.3,0.5l0.5-0.4h0.7l0.1,4h-0.7
		c-0.4-1.2-0.9-2.1-1.4-2.7c-0.6-0.6-1.2-0.9-2.1-0.9c-1,0-1.8,0.4-2.3,1.3c-0.5,0.9-0.8,2.1-0.8,3.6c0,1.6,0.3,2.9,0.8,3.8
		c0.5,0.9,1.3,1.4,2.3,1.4c0.5,0,0.9-0.1,1.2-0.2c0.4-0.1,0.6-0.3,0.8-0.5v-2.2c0-0.2,0-0.3-0.1-0.5c-0.1-0.1-0.2-0.2-0.4-0.3
		c-0.2-0.1-0.4-0.1-0.6-0.2s-0.4-0.1-0.6-0.1v-0.6h5.8V74.8z"/>
	<path d="M46.9,79.1c-0.2,0.1-0.5,0.2-0.8,0.3s-0.6,0.1-1,0.1c-0.6,0-1.1-0.1-1.4-0.3c-0.3-0.2-0.5-0.5-0.6-0.8h0
		c-0.2,0.2-0.3,0.3-0.5,0.5c-0.2,0.1-0.3,0.2-0.5,0.3c-0.2,0.1-0.5,0.2-0.7,0.3c-0.2,0.1-0.5,0.1-1,0.1c-0.6,0-1.1-0.2-1.5-0.5
		s-0.6-0.8-0.6-1.4c0-0.3,0-0.6,0.1-0.9c0.1-0.2,0.2-0.4,0.4-0.6c0.2-0.2,0.3-0.3,0.5-0.4s0.4-0.2,0.7-0.3c0.5-0.2,1-0.4,1.7-0.5
		c0.7-0.2,1.1-0.4,1.4-0.5v-0.8c0-0.1,0-0.3,0-0.5c0-0.2-0.1-0.4-0.1-0.5c-0.1-0.2-0.2-0.3-0.3-0.4S42.1,72,41.9,72
		c-0.2,0-0.4,0-0.6,0.1s-0.3,0.1-0.4,0.2c0,0.1,0.1,0.3,0.1,0.5c0.1,0.2,0.1,0.4,0.1,0.6c0,0.1,0,0.2-0.1,0.3c0,0.1-0.1,0.2-0.2,0.3
		c-0.1,0.1-0.3,0.2-0.4,0.2s-0.4,0.1-0.7,0.1c-0.4,0-0.8-0.1-1-0.3s-0.3-0.5-0.3-0.8c0-0.3,0.1-0.6,0.3-0.8c0.2-0.2,0.5-0.4,0.8-0.6
		c0.3-0.2,0.7-0.3,1.1-0.4c0.4-0.1,0.8-0.1,1.2-0.1c0.5,0,1,0,1.4,0.1s0.8,0.2,1.1,0.4c0.3,0.2,0.6,0.4,0.8,0.8
		c0.2,0.3,0.3,0.8,0.3,1.4c0,0.6,0,1.3,0,2.1s0,1.3,0,1.6c0,0.2,0,0.4,0.1,0.6s0.2,0.2,0.3,0.3c0.1,0,0.2,0.1,0.4,0.1
		c0.2,0,0.4,0,0.5,0V79.1z M44.4,67.9c0,0.2-0.1,0.4-0.2,0.6c-0.1,0.1-0.3,0.3-0.5,0.4c-0.3,0.2-0.7,0.4-1.2,0.7
		c-0.6,0.3-1.2,0.7-1.9,1.1l-0.3-0.3c0.5-0.6,0.8-1.1,1.1-1.5s0.5-0.7,0.6-0.9c0.2-0.3,0.4-0.5,0.6-0.6s0.5-0.2,0.8-0.2
		c0.2,0,0.5,0.1,0.7,0.2C44.3,67.6,44.4,67.7,44.4,67.9z M43,75.1c-0.3,0.1-0.6,0.2-0.9,0.3c-0.3,0.1-0.5,0.3-0.7,0.4
		c-0.2,0.1-0.3,0.3-0.5,0.6c-0.1,0.2-0.2,0.5-0.2,0.8c0,0.4,0.1,0.7,0.3,0.9s0.4,0.3,0.7,0.3c0.3,0,0.5-0.1,0.7-0.2
		c0.2-0.1,0.3-0.3,0.5-0.4L43,75.1z"/>
	<path d="M63,79.3h-4.6v-0.6c0.1,0,0.2,0,0.4,0s0.2,0,0.3-0.1c0.1-0.1,0.2-0.1,0.2-0.3c0-0.1,0-0.3,0-0.5v-3.6
		c0-0.5-0.1-0.9-0.3-1.2c-0.2-0.3-0.5-0.4-0.8-0.4c-0.2,0-0.4,0-0.6,0.1s-0.3,0.2-0.5,0.3c-0.2,0.1-0.3,0.2-0.4,0.3
		s-0.2,0.2-0.2,0.3v4.2c0,0.2,0,0.3,0.1,0.5s0.1,0.2,0.2,0.3c0.1,0,0.2,0.1,0.3,0.1c0.1,0,0.2,0.1,0.3,0.1v0.6H53v-0.6
		c0.1,0,0.2,0,0.4,0c0.1,0,0.2,0,0.3-0.1c0.1-0.1,0.2-0.1,0.2-0.2s0.1-0.3,0.1-0.5v-3.6c0-0.5-0.1-0.9-0.3-1.2
		c-0.2-0.3-0.5-0.4-0.8-0.4c-0.2,0-0.4,0-0.6,0.1s-0.3,0.2-0.5,0.3c-0.2,0.1-0.3,0.2-0.4,0.3s-0.2,0.2-0.2,0.3v4.2
		c0,0.2,0,0.3,0.1,0.5s0.1,0.2,0.2,0.3c0.1,0,0.2,0.1,0.3,0.1c0.1,0,0.2,0.1,0.3,0.1v0.6h-4.7v-0.6c0.1,0,0.3,0,0.4,0
		c0.1,0,0.2,0,0.3-0.1c0.2-0.1,0.3-0.2,0.3-0.3s0.1-0.3,0.1-0.5v-4.5c0-0.2,0-0.3-0.1-0.5c-0.1-0.2-0.2-0.3-0.3-0.4
		c-0.1-0.1-0.2-0.1-0.4-0.2c-0.1,0-0.3-0.1-0.5-0.1v-0.6l3.7-0.2l0.1,0.1v1.1h0c0.1-0.1,0.3-0.3,0.5-0.5c0.2-0.2,0.4-0.3,0.6-0.4
		c0.2-0.1,0.4-0.2,0.7-0.3c0.3-0.1,0.6-0.1,1-0.1c0.6,0,1.1,0.1,1.5,0.4s0.7,0.6,0.8,1h0.1c0.2-0.1,0.3-0.3,0.6-0.5s0.4-0.3,0.6-0.5
		c0.2-0.1,0.5-0.2,0.8-0.3c0.3-0.1,0.7-0.1,1-0.1c0.8,0,1.4,0.2,1.8,0.7c0.4,0.5,0.6,1.1,0.6,2v3.8c0,0.2,0,0.3,0.1,0.5
		c0.1,0.1,0.2,0.2,0.3,0.3c0.1,0,0.2,0.1,0.3,0.1c0.1,0,0.3,0.1,0.4,0.1V79.3z"/>
	<path d="M71.3,79.3h-7.7v-0.5l4.5-6.5c-0.6,0-1.2,0-1.7,0s-0.9,0.1-1.2,0.2c-0.1,0-0.2,0.2-0.4,0.6s-0.3,0.7-0.4,1.1h-0.5v-2.6h7.3
		V72l-4.5,6.6c0.1,0,0.3,0,0.5,0c0.2,0,0.5,0,0.7,0c0.3,0,0.5,0,0.8,0c0.3,0,0.5,0,0.7-0.1c0.2,0,0.4-0.1,0.5-0.2
		c0.1-0.1,0.2-0.3,0.3-0.4c0.1-0.2,0.2-0.4,0.3-0.7s0.2-0.6,0.3-0.8h0.5V79.3z"/>
	<path d="M80.5,77.4c-0.2,0.3-0.4,0.6-0.7,0.8S79.3,78.8,79,79c-0.3,0.2-0.7,0.3-1.1,0.4c-0.4,0.1-0.8,0.2-1.2,0.2
		c-0.8,0-1.4-0.1-2-0.3c-0.6-0.2-1-0.5-1.4-0.9C73,78,72.7,77.5,72.5,77s-0.3-1-0.3-1.6c0-0.5,0.1-1,0.3-1.5s0.5-0.9,0.8-1.3
		c0.4-0.4,0.8-0.7,1.3-0.9s1.1-0.3,1.8-0.3c0.7,0,1.3,0.1,1.8,0.3s0.9,0.4,1.2,0.7c0.3,0.3,0.5,0.6,0.6,1.1c0.1,0.4,0.2,0.8,0.2,1.3
		v0.5h-5.3c0,1.1,0.2,1.9,0.6,2.4c0.4,0.6,1.1,0.8,2,0.8c0.5,0,0.9-0.1,1.3-0.4s0.7-0.6,1-1L80.5,77.4z M77.6,74.5c0-0.3,0-0.6,0-1
		s-0.1-0.6-0.2-0.8c-0.1-0.2-0.2-0.4-0.4-0.6C76.8,72,76.6,72,76.4,72c-0.4,0-0.7,0.2-1,0.6c-0.2,0.4-0.4,1-0.4,1.9L77.6,74.5z"/>
	<path d="M88.9,79.3h-7.7v-0.5l4.5-6.5c-0.6,0-1.2,0-1.7,0s-0.9,0.1-1.2,0.2c-0.1,0-0.2,0.2-0.4,0.6s-0.3,0.7-0.4,1.1h-0.5v-2.6h7.3
		V72l-4.5,6.6c0.1,0,0.3,0,0.5,0c0.2,0,0.5,0,0.7,0c0.3,0,0.5,0,0.8,0c0.3,0,0.5,0,0.7-0.1c0.2,0,0.4-0.1,0.5-0.2
		c0.1-0.1,0.2-0.3,0.3-0.4c0.1-0.2,0.2-0.4,0.3-0.7s0.2-0.6,0.3-0.8h0.5V79.3z"/>
	<path d="M98.6,79.1c-0.2,0.1-0.5,0.2-0.8,0.3c-0.3,0.1-0.6,0.1-1,0.1c-0.6,0-1.1-0.1-1.4-0.3c-0.3-0.2-0.5-0.5-0.6-0.8h0
		c-0.2,0.2-0.3,0.3-0.5,0.5c-0.2,0.1-0.3,0.2-0.5,0.3c-0.2,0.1-0.5,0.2-0.7,0.3c-0.2,0.1-0.5,0.1-1,0.1c-0.6,0-1.1-0.2-1.5-0.5
		s-0.6-0.8-0.6-1.4c0-0.3,0-0.6,0.1-0.9c0.1-0.2,0.2-0.4,0.4-0.6c0.2-0.2,0.3-0.3,0.5-0.4s0.4-0.2,0.7-0.3c0.5-0.2,1-0.4,1.7-0.5
		c0.7-0.2,1.1-0.4,1.4-0.5v-0.8c0-0.1,0-0.3,0-0.5c0-0.2-0.1-0.4-0.1-0.5c-0.1-0.2-0.2-0.3-0.3-0.4S93.9,72,93.6,72
		c-0.2,0-0.4,0-0.6,0.1s-0.3,0.1-0.4,0.2c0,0.1,0.1,0.3,0.1,0.5c0.1,0.2,0.1,0.4,0.1,0.6c0,0.1,0,0.2-0.1,0.3c0,0.1-0.1,0.2-0.2,0.3
		c-0.1,0.1-0.3,0.2-0.4,0.2s-0.4,0.1-0.7,0.1c-0.4,0-0.8-0.1-1-0.3s-0.3-0.5-0.3-0.8c0-0.3,0.1-0.6,0.3-0.8c0.2-0.2,0.5-0.4,0.8-0.6
		c0.3-0.2,0.7-0.3,1.1-0.4c0.4-0.1,0.8-0.1,1.2-0.1c0.5,0,1,0,1.4,0.1s0.8,0.2,1.1,0.4c0.3,0.2,0.6,0.4,0.8,0.8
		c0.2,0.3,0.3,0.8,0.3,1.4c0,0.6,0,1.3,0,2.1s0,1.3,0,1.6c0,0.2,0,0.4,0.1,0.6s0.2,0.2,0.3,0.3c0.1,0,0.2,0.1,0.4,0.1
		c0.2,0,0.4,0,0.5,0V79.1z M94.8,75.1c-0.3,0.1-0.6,0.2-0.9,0.3c-0.3,0.1-0.5,0.3-0.7,0.4c-0.2,0.1-0.3,0.3-0.5,0.6
		c-0.1,0.2-0.2,0.5-0.2,0.8c0,0.4,0.1,0.7,0.3,0.9s0.4,0.3,0.7,0.3c0.3,0,0.5-0.1,0.7-0.2c0.2-0.1,0.3-0.3,0.5-0.4L94.8,75.1z"/>
	<path d="M112.1,72.1c-0.2,0-0.5,0.1-0.7,0.3c-0.2,0.1-0.4,0.4-0.6,0.7c-0.4,0.9-0.9,2-1.4,3c-0.5,1.1-1,2.2-1.6,3.5
		c-0.3,0.7-0.6,1.3-0.9,1.7c-0.3,0.4-0.6,0.7-0.9,1c-0.2,0.2-0.5,0.4-0.7,0.5c-0.2,0.1-0.5,0.1-0.7,0.1c-0.5,0-0.9-0.1-1.2-0.4
		s-0.5-0.6-0.5-0.9c0-0.1,0-0.3,0.1-0.4c0-0.1,0.1-0.3,0.2-0.4c0.1-0.1,0.2-0.2,0.4-0.3c0.2-0.1,0.4-0.1,0.6-0.1
		c0.3,0,0.6,0.1,0.8,0.3c0.3,0.2,0.5,0.5,0.8,0.8c0.2-0.2,0.4-0.4,0.6-0.8c0.3-0.3,0.4-0.7,0.6-1.1c-0.6-1.3-1.2-2.4-1.6-3.4
		c-0.5-1-1-2-1.6-3.2c-0.1-0.2-0.3-0.4-0.5-0.6s-0.5-0.2-0.7-0.3v-0.6h4.8v0.6c-0.2,0-0.4,0-0.6,0.1c-0.2,0.1-0.3,0.2-0.3,0.3
		c0,0,0,0.1,0,0.1s0,0.1,0.1,0.2c0.2,0.4,0.4,0.9,0.8,1.5c0.3,0.6,0.7,1.4,1.1,2.3c0.3-0.7,0.6-1.4,0.8-1.9c0.2-0.5,0.4-1.1,0.7-1.6
		c0.1-0.1,0.1-0.2,0.1-0.3s0-0.1,0-0.2c0-0.1,0-0.2-0.1-0.2c-0.1-0.1-0.2-0.1-0.3-0.2c-0.1-0.1-0.3-0.1-0.4-0.1
		c-0.1,0-0.2,0-0.3-0.1v-0.6h3.2V72.1z"/>
	<path d="M126.7,71.4h-0.6c-0.2-0.5-0.4-1-0.8-1.5c-0.4-0.5-0.7-0.8-1-0.9c-0.2,0-0.4,0-0.6-0.1s-0.5,0-0.6,0h-0.4v8.7
		c0,0.2,0,0.4,0.1,0.5c0.1,0.1,0.2,0.3,0.4,0.3c0.1,0,0.3,0.1,0.6,0.1c0.3,0,0.5,0.1,0.6,0.1v0.6h-6.2v-0.6c0.2,0,0.4,0,0.6-0.1
		s0.5-0.1,0.6-0.1c0.2-0.1,0.3-0.2,0.4-0.3c0.1-0.1,0.1-0.3,0.1-0.5v-8.8h-0.4c-0.2,0-0.4,0-0.6,0s-0.4,0-0.6,0.1
		c-0.3,0-0.6,0.3-1,0.9c-0.4,0.5-0.6,1-0.8,1.5H116v-3.2h10.7V71.4z"/>
	<path d="M135.3,72.5c0.4,0.4,0.7,0.8,0.9,1.3s0.3,1,0.3,1.6c0,0.6-0.1,1.1-0.3,1.6c-0.2,0.5-0.5,1-0.9,1.3
		c-0.4,0.4-0.9,0.7-1.5,0.9s-1.2,0.3-2,0.3c-0.6,0-1.2-0.1-1.8-0.3c-0.5-0.2-1-0.5-1.4-0.8c-0.4-0.3-0.7-0.8-0.9-1.3
		c-0.2-0.5-0.3-1.1-0.3-1.7c0-0.6,0.1-1.2,0.3-1.7c0.2-0.5,0.5-0.9,0.9-1.3c0.4-0.4,0.9-0.6,1.4-0.8c0.6-0.2,1.2-0.3,1.9-0.3
		c0.7,0,1.4,0.1,1.9,0.3S134.9,72.1,135.3,72.5z M134.2,67.9c0,0.2-0.1,0.4-0.2,0.6c-0.1,0.1-0.3,0.3-0.5,0.4
		c-0.3,0.2-0.7,0.4-1.2,0.7c-0.6,0.3-1.2,0.7-1.9,1.1l-0.3-0.3c0.5-0.6,0.8-1.1,1.1-1.5s0.5-0.7,0.6-0.9c0.2-0.3,0.4-0.5,0.6-0.6
		s0.5-0.2,0.8-0.2c0.2,0,0.5,0.1,0.7,0.2C134.1,67.6,134.2,67.7,134.2,67.9z M133.3,77.9c0.1-0.3,0.2-0.6,0.3-1.1s0.1-0.9,0.1-1.5
		c0-0.4,0-0.8-0.1-1.2c-0.1-0.5-0.1-0.8-0.2-1.1c-0.1-0.3-0.3-0.6-0.5-0.8c-0.2-0.2-0.5-0.3-0.8-0.3c-0.4,0-0.7,0.1-0.9,0.3
		c-0.2,0.2-0.4,0.5-0.5,0.8c-0.1,0.3-0.2,0.6-0.2,1c0,0.4-0.1,0.8-0.1,1.2c0,0.6,0,1,0.1,1.4c0,0.4,0.1,0.7,0.3,1.1
		c0.1,0.3,0.3,0.6,0.5,0.8c0.2,0.2,0.5,0.3,0.9,0.3c0.3,0,0.6-0.1,0.8-0.3C133,78.5,133.1,78.2,133.3,77.9z"/>
	<path d="M147,75.5c0,1.1-0.4,2-1.1,2.8s-1.7,1.2-2.8,1.2c-0.5,0-0.9-0.1-1.2-0.2c-0.3-0.1-0.6-0.2-0.8-0.4H141v2.2
		c0,0.2,0,0.3,0.1,0.5c0.1,0.1,0.2,0.2,0.3,0.3c0.1,0.1,0.3,0.1,0.6,0.2s0.5,0.1,0.6,0.1v0.6h-5.6v-0.6c0.1,0,0.3,0,0.5-0.1
		c0.2,0,0.3-0.1,0.4-0.1c0.2-0.1,0.3-0.2,0.3-0.3c0.1-0.1,0.1-0.3,0.1-0.5v-8c0-0.2-0.1-0.3-0.1-0.5c-0.1-0.1-0.2-0.2-0.3-0.3
		c-0.1-0.1-0.2-0.1-0.4-0.2s-0.3-0.1-0.5-0.1v-0.6l3.8-0.2l0.1,0.1v0.9l0.1,0c0.3-0.3,0.7-0.6,1.1-0.8s0.8-0.3,1.2-0.3
		c1.1,0,1.9,0.4,2.6,1.1S147,74.3,147,75.5z M144.2,75.5c0-0.4,0-0.8-0.1-1.1c-0.1-0.4-0.2-0.7-0.3-1c-0.1-0.3-0.3-0.5-0.6-0.7
		s-0.5-0.2-0.8-0.2c-0.3,0-0.6,0.1-0.8,0.2c-0.2,0.1-0.4,0.3-0.5,0.5v4.4c0,0.1,0.1,0.2,0.2,0.4c0.1,0.2,0.2,0.3,0.3,0.4
		c0.1,0.1,0.3,0.2,0.4,0.3c0.2,0.1,0.3,0.1,0.5,0.1c0.5,0,0.9-0.3,1.2-0.8C144,77.4,144.2,76.6,144.2,75.5z"/>
	<path d="M156.9,79.1c-0.2,0.1-0.5,0.2-0.8,0.3c-0.3,0.1-0.6,0.1-1,0.1c-0.6,0-1.1-0.1-1.4-0.3c-0.3-0.2-0.5-0.5-0.6-0.8h0
		c-0.2,0.2-0.3,0.3-0.5,0.5c-0.2,0.1-0.3,0.2-0.5,0.3c-0.2,0.1-0.5,0.2-0.7,0.3s-0.5,0.1-1,0.1c-0.6,0-1.1-0.2-1.5-0.5
		s-0.6-0.8-0.6-1.4c0-0.3,0-0.6,0.1-0.9s0.2-0.4,0.4-0.6c0.2-0.2,0.3-0.3,0.5-0.4s0.4-0.2,0.7-0.3c0.5-0.2,1-0.4,1.7-0.5
		c0.7-0.2,1.1-0.4,1.4-0.5v-0.8c0-0.1,0-0.3,0-0.5c0-0.2-0.1-0.4-0.1-0.5c-0.1-0.2-0.2-0.3-0.3-0.4s-0.4-0.2-0.6-0.2
		c-0.2,0-0.4,0-0.6,0.1c-0.2,0.1-0.3,0.1-0.4,0.2c0,0.1,0.1,0.3,0.1,0.5c0.1,0.2,0.1,0.4,0.1,0.6c0,0.1,0,0.2-0.1,0.3
		c0,0.1-0.1,0.2-0.2,0.3c-0.1,0.1-0.3,0.2-0.4,0.2c-0.1,0.1-0.4,0.1-0.7,0.1c-0.4,0-0.8-0.1-1-0.3s-0.3-0.5-0.3-0.8
		c0-0.3,0.1-0.6,0.3-0.8c0.2-0.2,0.5-0.4,0.8-0.6c0.3-0.2,0.7-0.3,1.1-0.4c0.4-0.1,0.8-0.1,1.2-0.1c0.5,0,1,0,1.4,0.1
		s0.8,0.2,1.1,0.4c0.3,0.2,0.6,0.4,0.8,0.8s0.3,0.8,0.3,1.4c0,0.6,0,1.3,0,2.1s0,1.3,0,1.6c0,0.2,0,0.4,0.1,0.6s0.2,0.2,0.3,0.3
		c0.1,0,0.2,0.1,0.4,0.1s0.4,0,0.5,0V79.1z M153,75.1c-0.3,0.1-0.6,0.2-0.9,0.3c-0.3,0.1-0.5,0.3-0.7,0.4c-0.2,0.1-0.3,0.3-0.5,0.6
		c-0.1,0.2-0.2,0.5-0.2,0.8c0,0.4,0.1,0.7,0.3,0.9s0.4,0.3,0.7,0.3c0.3,0,0.5-0.1,0.7-0.2c0.2-0.1,0.3-0.3,0.5-0.4L153,75.1z"/>
	<path d="M166.3,72.4h-1.7c0.2,0.2,0.4,0.5,0.5,0.7s0.2,0.5,0.2,0.8c0,0.4-0.1,0.7-0.3,1s-0.4,0.6-0.8,0.8c-0.3,0.2-0.7,0.4-1.1,0.5
		s-0.9,0.2-1.4,0.2h-1.3c-0.1,0-0.1,0.1-0.2,0.2c-0.1,0.1-0.1,0.2-0.1,0.3c0,0.2,0.1,0.4,0.3,0.5s0.5,0.1,1,0.1c0.5,0,1,0,1.4,0.1
		s0.8,0,1,0.1c0.3,0,0.6,0.1,0.9,0.2s0.6,0.2,0.8,0.4c0.2,0.2,0.4,0.4,0.6,0.7s0.2,0.6,0.2,1c0,0.4-0.1,0.8-0.3,1.1
		s-0.5,0.7-0.9,0.9c-0.4,0.3-0.9,0.5-1.5,0.6s-1.3,0.2-2.1,0.2c-1.4,0-2.4-0.2-3.1-0.5s-1.1-0.8-1.1-1.5c0-0.4,0.2-0.8,0.6-1
		c0.4-0.3,1-0.4,1.8-0.4v-0.1c-0.5-0.2-0.9-0.4-1.1-0.6c-0.3-0.3-0.4-0.6-0.4-0.9c0-0.2,0.1-0.4,0.2-0.6c0.1-0.2,0.2-0.3,0.4-0.4
		c0.1-0.1,0.3-0.2,0.5-0.3c0.2-0.1,0.4-0.1,0.5-0.2v-0.1c-0.7-0.3-1.2-0.6-1.6-1s-0.5-0.8-0.5-1.4c0-0.8,0.4-1.4,1.1-1.8
		s1.6-0.7,2.7-0.7c0.4,0,0.7,0,1,0.1s0.6,0.1,0.8,0.2h3V72.4z M163.9,80.5c0-0.2,0-0.4-0.1-0.5s-0.3-0.3-0.7-0.4
		c-0.2,0-0.5-0.1-0.9-0.1s-1,0-1.8,0c-0.2,0.2-0.3,0.3-0.5,0.6c-0.1,0.2-0.2,0.5-0.2,0.8c0,0.1,0,0.3,0.1,0.4
		c0.1,0.2,0.2,0.3,0.3,0.4c0.2,0.2,0.4,0.3,0.6,0.4s0.6,0.1,1,0.1c0.7,0,1.2-0.1,1.5-0.4S163.9,81.1,163.9,80.5z M162.6,73.9
		c0-0.6-0.1-1.1-0.3-1.4s-0.5-0.5-0.9-0.5c-0.2,0-0.4,0-0.5,0.1s-0.3,0.2-0.4,0.4c-0.1,0.2-0.1,0.4-0.2,0.6s0,0.5,0,0.7
		c0,0.6,0.1,1,0.3,1.4s0.5,0.5,0.8,0.5c0.4,0,0.7-0.2,0.9-0.5S162.6,74.5,162.6,73.9z"/>
	<path d="M175.7,79.1c-0.2,0.1-0.5,0.2-0.8,0.3c-0.3,0.1-0.6,0.1-1,0.1c-0.6,0-1.1-0.1-1.4-0.3c-0.3-0.2-0.5-0.5-0.6-0.8h0
		c-0.2,0.2-0.3,0.3-0.5,0.5s-0.3,0.2-0.5,0.3c-0.2,0.1-0.5,0.2-0.7,0.3c-0.2,0.1-0.5,0.1-1,0.1c-0.6,0-1.1-0.2-1.5-0.5
		s-0.6-0.8-0.6-1.4c0-0.3,0-0.6,0.1-0.9s0.2-0.4,0.4-0.6c0.2-0.2,0.3-0.3,0.5-0.4s0.4-0.2,0.7-0.3c0.5-0.2,1-0.4,1.7-0.5
		c0.7-0.2,1.1-0.4,1.4-0.5v-0.8c0-0.1,0-0.3,0-0.5s-0.1-0.4-0.1-0.5c-0.1-0.2-0.2-0.3-0.3-0.4s-0.4-0.2-0.6-0.2
		c-0.2,0-0.4,0-0.6,0.1c-0.2,0.1-0.3,0.1-0.4,0.2c0,0.1,0.1,0.3,0.1,0.5c0.1,0.2,0.1,0.4,0.1,0.6c0,0.1,0,0.2-0.1,0.3
		s-0.1,0.2-0.2,0.3c-0.1,0.1-0.3,0.2-0.4,0.2s-0.4,0.1-0.7,0.1c-0.4,0-0.8-0.1-1-0.3s-0.3-0.5-0.3-0.8c0-0.3,0.1-0.6,0.3-0.8
		s0.5-0.4,0.8-0.6c0.3-0.2,0.7-0.3,1.1-0.4s0.8-0.1,1.2-0.1c0.5,0,1,0,1.4,0.1s0.8,0.2,1.1,0.4c0.3,0.2,0.6,0.4,0.8,0.8
		s0.3,0.8,0.3,1.4c0,0.6,0,1.3,0,2.1s0,1.3,0,1.6c0,0.2,0,0.4,0.1,0.6s0.2,0.2,0.3,0.3c0.1,0,0.2,0.1,0.4,0.1s0.4,0,0.5,0V79.1z
		 M171.8,75.1c-0.3,0.1-0.6,0.2-0.9,0.3c-0.3,0.1-0.5,0.3-0.7,0.4c-0.2,0.1-0.3,0.3-0.5,0.6c-0.1,0.2-0.2,0.5-0.2,0.8
		c0,0.4,0.1,0.7,0.3,0.9s0.4,0.3,0.7,0.3c0.3,0,0.5-0.1,0.7-0.2c0.2-0.1,0.3-0.3,0.5-0.4L171.8,75.1z"/>
	<path d="M180.3,73.1c0,0.4-0.2,0.8-0.5,1.1s-0.7,0.5-1.1,0.5c-0.4,0-0.8-0.1-1.1-0.4s-0.5-0.7-0.5-1.1s0.2-0.8,0.5-1.1
		s0.7-0.5,1.1-0.5c0.4,0,0.8,0.2,1.1,0.5S180.3,72.7,180.3,73.1z M180.3,78c0,0.4-0.2,0.8-0.5,1.1s-0.7,0.5-1.1,0.5
		c-0.4,0-0.8-0.1-1.1-0.4s-0.5-0.7-0.5-1.1s0.2-0.8,0.5-1.1s0.7-0.5,1.1-0.5c0.4,0,0.8,0.2,1.1,0.5S180.3,77.6,180.3,78z"/>
	<path d="M196.4,79.3h-4.7v-0.6c0.1,0,0.2,0,0.4,0s0.2,0,0.3-0.1c0.1-0.1,0.2-0.1,0.2-0.2s0.1-0.3,0.1-0.5v-3.7
		c0-0.5-0.1-0.9-0.3-1.2s-0.5-0.4-0.9-0.4c-0.2,0-0.4,0-0.6,0.1s-0.4,0.2-0.5,0.3c-0.2,0.1-0.3,0.2-0.4,0.3s-0.2,0.2-0.2,0.3v4.2
		c0,0.2,0,0.3,0.1,0.5s0.1,0.2,0.3,0.3c0.1,0,0.2,0.1,0.3,0.1s0.3,0.1,0.4,0.1v0.6H186v-0.6c0.1,0,0.3,0,0.4,0c0.1,0,0.2,0,0.3-0.1
		c0.2-0.1,0.3-0.2,0.3-0.3c0.1-0.1,0.1-0.3,0.1-0.5v-8.7c0-0.2,0-0.3-0.1-0.5s-0.2-0.3-0.3-0.4c-0.1-0.1-0.3-0.1-0.5-0.2
		s-0.4-0.1-0.5-0.1v-0.6l3.9-0.2l0.1,0.1v5.4h0c0.2-0.2,0.4-0.3,0.5-0.5c0.2-0.1,0.4-0.3,0.6-0.4c0.2-0.1,0.4-0.2,0.8-0.3
		s0.6-0.1,1-0.1c0.8,0,1.5,0.2,1.9,0.7s0.6,1.1,0.6,1.9v3.8c0,0.2,0,0.3,0.1,0.5s0.2,0.2,0.3,0.3c0.1,0,0.2,0.1,0.3,0.1
		s0.3,0.1,0.4,0.1V79.3z"/>
	<path d="M207.3,79.1l-3.7,0.2l-0.1-0.1v-1h0c-0.2,0.2-0.3,0.3-0.5,0.5s-0.4,0.3-0.6,0.4c-0.3,0.1-0.5,0.2-0.8,0.3
		c-0.2,0.1-0.6,0.1-1,0.1c-0.8,0-1.4-0.2-1.8-0.7s-0.6-1.1-0.6-2v-3.5c0-0.2,0-0.4-0.1-0.5c-0.1-0.1-0.2-0.2-0.3-0.3
		c-0.1-0.1-0.2-0.1-0.4-0.2c-0.2,0-0.3-0.1-0.5-0.1v-0.6l3.8-0.2l0.1,0.1v5.2c0,0.5,0.1,0.9,0.3,1.2s0.5,0.4,0.8,0.4
		c0.4,0,0.7-0.1,1-0.3s0.5-0.4,0.6-0.6v-4.2c0-0.2,0-0.3-0.1-0.5s-0.2-0.3-0.3-0.3c-0.1-0.1-0.2-0.1-0.4-0.1s-0.4,0-0.5,0v-0.6
		l3.8-0.2l0.1,0.1v6c0,0.2,0,0.3,0.1,0.5c0.1,0.1,0.2,0.2,0.3,0.3c0.1,0.1,0.2,0.1,0.4,0.1s0.3,0,0.5,0V79.1z"/>
	<path d="M216.3,77.4c-0.2,0.3-0.4,0.6-0.7,0.8s-0.6,0.5-0.9,0.7c-0.3,0.2-0.7,0.3-1.1,0.4s-0.8,0.2-1.2,0.2c-0.8,0-1.4-0.1-2-0.3
		s-1-0.5-1.4-0.9s-0.6-0.8-0.8-1.3s-0.3-1-0.3-1.6c0-0.5,0.1-1,0.3-1.5s0.5-0.9,0.8-1.3c0.4-0.4,0.8-0.7,1.3-0.9s1.1-0.3,1.8-0.3
		c0.7,0,1.3,0.1,1.8,0.3s0.9,0.4,1.2,0.7c0.3,0.3,0.5,0.6,0.6,1.1s0.2,0.8,0.2,1.3v0.5h-5.3c0,1.1,0.2,1.9,0.6,2.4s1.1,0.8,2,0.8
		c0.5,0,0.9-0.1,1.3-0.4s0.7-0.6,1-1L216.3,77.4z M213.3,74.5c0-0.3,0-0.6,0-1s-0.1-0.6-0.2-0.8c-0.1-0.2-0.2-0.4-0.4-0.6
		s-0.3-0.2-0.6-0.2c-0.4,0-0.7,0.2-1,0.6s-0.4,1-0.4,1.9L213.3,74.5z"/>
	<path d="M221.8,79.3h-4.9v-0.6c0.1,0,0.3,0,0.4,0c0.1,0,0.2,0,0.3-0.1c0.2-0.1,0.3-0.2,0.3-0.3c0.1-0.1,0.1-0.3,0.1-0.5v-8.7
		c0-0.2,0-0.4-0.1-0.6s-0.2-0.3-0.3-0.4c-0.1-0.1-0.3-0.1-0.5-0.2s-0.4-0.1-0.6-0.1v-0.6l3.9-0.2l0.1,0.1v10.4c0,0.2,0,0.3,0.1,0.5
		c0.1,0.1,0.2,0.2,0.3,0.3c0.1,0,0.2,0.1,0.3,0.1s0.3,0.1,0.4,0.1V79.3z"/>
	<path d="M227.3,79.3h-4.9v-0.6c0.1,0,0.3,0,0.4,0c0.1,0,0.2,0,0.3-0.1c0.2-0.1,0.3-0.2,0.3-0.3c0.1-0.1,0.1-0.3,0.1-0.5v-8.7
		c0-0.2,0-0.4-0.1-0.6s-0.2-0.3-0.3-0.4c-0.1-0.1-0.3-0.1-0.5-0.2s-0.4-0.1-0.6-0.1v-0.6l3.9-0.2l0.1,0.1v10.4c0,0.2,0,0.3,0.1,0.5
		c0.1,0.1,0.2,0.2,0.3,0.3c0.1,0,0.2,0.1,0.3,0.1s0.3,0.1,0.4,0.1V79.3z"/>
	<path d="M237,79.1c-0.2,0.1-0.5,0.2-0.8,0.3c-0.3,0.1-0.6,0.1-1,0.1c-0.6,0-1.1-0.1-1.4-0.3c-0.3-0.2-0.5-0.5-0.6-0.8h0
		c-0.2,0.2-0.3,0.3-0.5,0.5s-0.3,0.2-0.5,0.3c-0.2,0.1-0.5,0.2-0.7,0.3c-0.2,0.1-0.5,0.1-1,0.1c-0.6,0-1.1-0.2-1.5-0.5
		s-0.6-0.8-0.6-1.4c0-0.3,0-0.6,0.1-0.9s0.2-0.4,0.4-0.6c0.2-0.2,0.3-0.3,0.5-0.4s0.4-0.2,0.7-0.3c0.5-0.2,1-0.4,1.7-0.5
		c0.7-0.2,1.1-0.4,1.4-0.5v-0.8c0-0.1,0-0.3,0-0.5s-0.1-0.4-0.1-0.5c-0.1-0.2-0.2-0.3-0.3-0.4S232.3,72,232,72c-0.2,0-0.4,0-0.6,0.1
		c-0.2,0.1-0.3,0.1-0.4,0.2c0,0.1,0.1,0.3,0.1,0.5c0.1,0.2,0.1,0.4,0.1,0.6c0,0.1,0,0.2-0.1,0.3s-0.1,0.2-0.2,0.3
		c-0.1,0.1-0.3,0.2-0.4,0.2s-0.4,0.1-0.7,0.1c-0.4,0-0.8-0.1-1-0.3s-0.3-0.5-0.3-0.8c0-0.3,0.1-0.6,0.3-0.8s0.5-0.4,0.8-0.6
		c0.3-0.2,0.7-0.3,1.1-0.4s0.8-0.1,1.2-0.1c0.5,0,1,0,1.4,0.1s0.8,0.2,1.1,0.4c0.3,0.2,0.6,0.4,0.8,0.8s0.3,0.8,0.3,1.4
		c0,0.6,0,1.3,0,2.1s0,1.3,0,1.6c0,0.2,0,0.4,0.1,0.6s0.2,0.2,0.3,0.3c0.1,0,0.2,0.1,0.4,0.1s0.4,0,0.5,0V79.1z M233.1,75.1
		c-0.3,0.1-0.6,0.2-0.9,0.3c-0.3,0.1-0.5,0.3-0.7,0.4c-0.2,0.1-0.3,0.3-0.5,0.6c-0.1,0.2-0.2,0.5-0.2,0.8c0,0.4,0.1,0.7,0.3,0.9
		s0.4,0.3,0.7,0.3c0.3,0,0.5-0.1,0.7-0.2c0.2-0.1,0.3-0.3,0.5-0.4L233.1,75.1z"/>
	<path d="M241.2,79.6c-0.5,0-1-0.1-1.5-0.2s-0.9-0.3-1.1-0.5l-0.2,0.5h-0.6l-0.1-2.9h0.6c0.1,0.2,0.2,0.5,0.4,0.8s0.4,0.6,0.6,0.8
		c0.2,0.2,0.5,0.4,0.8,0.6s0.7,0.2,1,0.2c0.5,0,0.8-0.1,1.1-0.3s0.3-0.5,0.3-0.9c0-0.2-0.1-0.4-0.2-0.5s-0.2-0.3-0.4-0.4
		c-0.2-0.1-0.4-0.2-0.7-0.3s-0.5-0.2-0.9-0.3s-0.7-0.2-0.9-0.3s-0.5-0.3-0.8-0.5c-0.2-0.2-0.4-0.4-0.6-0.7s-0.2-0.6-0.2-1
		c0-0.7,0.3-1.3,0.9-1.8s1.4-0.7,2.4-0.7c0.5,0,0.9,0,1.3,0.1s0.7,0.2,1,0.3l0.2-0.5h0.6l0.1,2.7h-0.5c-0.2-0.5-0.5-1-0.9-1.4
		s-0.9-0.6-1.4-0.6c-0.4,0-0.7,0.1-0.9,0.2s-0.3,0.4-0.3,0.7c0,0.4,0.2,0.7,0.5,0.9s0.8,0.3,1.4,0.5c0.9,0.2,1.6,0.6,2,1
		s0.6,0.9,0.6,1.6c0,0.9-0.3,1.5-1,2S242.3,79.6,241.2,79.6z"/>
	<path d="M50.1,51.9h-0.6c-0.2-0.4-0.4-0.8-0.8-1.3c-0.4-0.4-0.7-0.7-1.1-0.8c-0.2,0-0.4-0.1-0.7-0.1c-0.3,0-0.5,0-0.7,0h-1.6V54
		h1.1c0.3,0,0.5,0,0.8-0.1s0.4-0.2,0.6-0.4c0.1-0.1,0.2-0.3,0.4-0.6c0.1-0.3,0.2-0.6,0.2-0.8h0.6v4.6h-0.6c0-0.2-0.1-0.5-0.2-0.8
		c-0.1-0.3-0.2-0.6-0.4-0.7c-0.2-0.2-0.4-0.3-0.6-0.4s-0.5-0.1-0.8-0.1h-1.1v3.2c0,0.3,0,0.6,0.1,0.8c0,0.2,0.1,0.3,0.3,0.4
		c0.1,0.1,0.3,0.2,0.5,0.2s0.5,0,0.9,0c0.2,0,0.4,0,0.7,0c0.3,0,0.5,0,0.7,0c0.2,0,0.4-0.1,0.6-0.1c0.2-0.1,0.3-0.1,0.4-0.2
		c0.2-0.3,0.5-0.6,0.8-1.2s0.5-0.9,0.6-1.2h0.6l-0.2,3.5H40.2v-0.6c0.1,0,0.3,0,0.6-0.1s0.4-0.1,0.5-0.1c0.2-0.1,0.3-0.2,0.4-0.3
		c0.1-0.1,0.1-0.3,0.1-0.5v-7.8c0-0.2,0-0.3-0.1-0.5c-0.1-0.1-0.2-0.2-0.4-0.3c-0.1-0.1-0.3-0.1-0.6-0.2c-0.2-0.1-0.4-0.1-0.6-0.1
		V49h9.8V51.9z"/>
	<path d="M55.3,60.4c-0.5,0-1-0.1-1.5-0.2c-0.5-0.1-0.9-0.3-1.1-0.5l-0.2,0.5h-0.6l-0.1-2.9h0.6c0.1,0.2,0.2,0.5,0.4,0.8
		c0.2,0.3,0.4,0.6,0.6,0.8c0.2,0.2,0.5,0.4,0.8,0.6c0.3,0.2,0.7,0.2,1,0.2c0.5,0,0.8-0.1,1.1-0.3c0.2-0.2,0.3-0.5,0.3-0.9
		c0-0.2-0.1-0.4-0.2-0.5c-0.1-0.1-0.2-0.3-0.4-0.4c-0.2-0.1-0.4-0.2-0.7-0.3s-0.5-0.2-0.9-0.3c-0.4-0.1-0.7-0.2-0.9-0.3
		c-0.3-0.1-0.5-0.3-0.8-0.5c-0.2-0.2-0.4-0.4-0.6-0.7S52,55,52,54.6c0-0.7,0.3-1.3,0.9-1.8s1.4-0.7,2.4-0.7c0.5,0,0.9,0,1.3,0.1
		s0.7,0.2,1,0.3l0.2-0.5h0.6l0.1,2.7H58c-0.2-0.5-0.5-1-0.9-1.4c-0.4-0.4-0.9-0.6-1.4-0.6c-0.4,0-0.7,0.1-0.9,0.2
		c-0.2,0.2-0.3,0.4-0.3,0.7c0,0.4,0.2,0.7,0.5,0.9s0.8,0.3,1.4,0.5c0.9,0.2,1.6,0.6,2,1s0.6,0.9,0.6,1.6c0,0.9-0.3,1.5-1,2
		C57.3,60.1,56.4,60.4,55.3,60.4z"/>
	<path d="M64.3,60.4c-0.7,0-1.4-0.1-1.9-0.3s-1-0.5-1.4-0.9c-0.4-0.4-0.6-0.8-0.8-1.3c-0.2-0.5-0.3-1.1-0.3-1.6
		c0-0.5,0.1-1.1,0.3-1.5c0.2-0.5,0.5-0.9,0.9-1.3c0.4-0.4,0.9-0.7,1.4-0.9c0.6-0.2,1.2-0.3,1.9-0.3c1,0,1.7,0.2,2.3,0.5
		c0.6,0.4,0.8,0.9,0.8,1.5c0,0.4-0.1,0.7-0.3,0.9c-0.2,0.2-0.5,0.3-1,0.3c-0.4,0-0.7-0.1-1-0.3c-0.3-0.2-0.4-0.4-0.4-0.7
		c0-0.3,0-0.5,0.1-0.8c0.1-0.2,0.1-0.4,0.1-0.6c-0.1-0.1-0.1-0.2-0.2-0.2c-0.1,0-0.2-0.1-0.4-0.1c-0.2,0-0.4,0.1-0.6,0.2
		c-0.2,0.1-0.4,0.3-0.5,0.6c-0.2,0.3-0.3,0.6-0.4,1c-0.1,0.4-0.1,1-0.1,1.6c0,0.9,0.2,1.7,0.7,2.2c0.4,0.6,1,0.9,1.6,0.9
		c0.6,0,1-0.1,1.4-0.4c0.3-0.3,0.6-0.6,0.9-1.1l0.6,0.4c-0.2,0.3-0.4,0.6-0.6,0.9c-0.2,0.3-0.5,0.5-0.8,0.7c-0.3,0.2-0.7,0.4-1,0.5
		C65.2,60.3,64.8,60.4,64.3,60.4z"/>
	<path d="M76.8,58.2c-0.2,0.3-0.4,0.6-0.7,0.8s-0.6,0.5-0.9,0.7c-0.3,0.2-0.7,0.3-1.1,0.4c-0.4,0.1-0.8,0.2-1.2,0.2
		c-0.8,0-1.4-0.1-2-0.3c-0.6-0.2-1-0.5-1.4-0.9c-0.4-0.4-0.6-0.8-0.8-1.3s-0.3-1-0.3-1.6c0-0.5,0.1-1,0.3-1.5s0.5-0.9,0.8-1.3
		c0.4-0.4,0.8-0.7,1.3-0.9s1.1-0.3,1.8-0.3c0.7,0,1.3,0.1,1.8,0.3s0.9,0.4,1.2,0.7c0.3,0.3,0.5,0.6,0.6,1.1c0.1,0.4,0.2,0.8,0.2,1.3
		V56h-5.3c0,1.1,0.2,1.9,0.6,2.4c0.4,0.6,1.1,0.8,2,0.8c0.5,0,0.9-0.1,1.3-0.4s0.7-0.6,1-1L76.8,58.2z M73.8,55.3c0-0.3,0-0.6,0-1
		s-0.1-0.6-0.2-0.8c-0.1-0.2-0.2-0.4-0.4-0.6c-0.2-0.1-0.3-0.2-0.6-0.2c-0.4,0-0.7,0.2-1,0.6c-0.2,0.4-0.4,1-0.4,1.9L73.8,55.3z"/>
	<path d="M87.8,60.1h-4.7v-0.6c0.1,0,0.2,0,0.4,0s0.2,0,0.3-0.1c0.1-0.1,0.2-0.1,0.2-0.2s0.1-0.3,0.1-0.5V55c0-0.5-0.1-0.9-0.3-1.2
		s-0.5-0.4-0.9-0.4c-0.2,0-0.4,0-0.6,0.1s-0.4,0.2-0.5,0.3c-0.2,0.1-0.3,0.2-0.4,0.3s-0.2,0.2-0.2,0.3v4.2c0,0.2,0,0.3,0.1,0.5
		c0.1,0.1,0.1,0.2,0.3,0.3c0.1,0,0.2,0.1,0.3,0.1s0.2,0.1,0.4,0.1v0.6h-4.8v-0.6c0.1,0,0.3,0,0.4,0s0.2,0,0.3-0.1
		c0.2-0.1,0.3-0.1,0.3-0.3s0.1-0.3,0.1-0.5v-4.5c0-0.2,0-0.3-0.1-0.5c-0.1-0.2-0.2-0.3-0.3-0.4c-0.1-0.1-0.2-0.1-0.4-0.2
		c-0.1,0-0.3-0.1-0.5-0.1v-0.6l3.7-0.2l0.1,0.1v1.1h0c0.1-0.1,0.3-0.3,0.5-0.5c0.2-0.2,0.4-0.3,0.6-0.4c0.2-0.1,0.4-0.2,0.8-0.3
		s0.6-0.1,1-0.1c0.8,0,1.5,0.2,1.9,0.7c0.4,0.5,0.6,1.1,0.6,1.9v3.8c0,0.2,0,0.3,0.1,0.5c0.1,0.1,0.2,0.2,0.3,0.3
		c0.1,0,0.2,0.1,0.3,0.1c0.1,0,0.3,0.1,0.4,0.1V60.1z"/>
	<path d="M97.5,59.9c-0.2,0.1-0.5,0.2-0.8,0.3s-0.6,0.1-1,0.1c-0.6,0-1.1-0.1-1.4-0.3c-0.3-0.2-0.5-0.5-0.6-0.8h0
		c-0.2,0.2-0.3,0.3-0.5,0.5c-0.2,0.1-0.3,0.2-0.5,0.3c-0.2,0.1-0.5,0.2-0.7,0.3c-0.2,0.1-0.5,0.1-1,0.1c-0.6,0-1.1-0.2-1.5-0.5
		s-0.6-0.8-0.6-1.4c0-0.3,0-0.6,0.1-0.9c0.1-0.2,0.2-0.4,0.4-0.6c0.2-0.2,0.3-0.3,0.5-0.4s0.4-0.2,0.7-0.3c0.5-0.2,1-0.4,1.7-0.5
		c0.7-0.2,1.1-0.4,1.4-0.5v-0.8c0-0.1,0-0.3,0-0.5c0-0.2-0.1-0.4-0.1-0.5c-0.1-0.2-0.2-0.3-0.3-0.4s-0.4-0.2-0.6-0.2
		c-0.2,0-0.4,0-0.6,0.1s-0.3,0.1-0.4,0.2c0,0.1,0.1,0.3,0.1,0.5c0.1,0.2,0.1,0.4,0.1,0.6c0,0.1,0,0.2-0.1,0.3c0,0.1-0.1,0.2-0.2,0.3
		c-0.1,0.1-0.3,0.2-0.4,0.2s-0.4,0.1-0.7,0.1c-0.4,0-0.8-0.1-1-0.3s-0.3-0.5-0.3-0.8c0-0.3,0.1-0.6,0.3-0.8c0.2-0.2,0.5-0.4,0.8-0.6
		c0.3-0.2,0.7-0.3,1.1-0.4c0.4-0.1,0.8-0.1,1.2-0.1c0.5,0,1,0,1.4,0.1s0.8,0.2,1.1,0.4c0.3,0.2,0.6,0.4,0.8,0.8
		c0.2,0.3,0.3,0.8,0.3,1.4c0,0.6,0,1.3,0,2.1s0,1.3,0,1.6c0,0.2,0,0.4,0.1,0.6s0.2,0.2,0.3,0.3c0.1,0,0.2,0.1,0.4,0.1
		c0.2,0,0.4,0,0.5,0V59.9z M93.6,55.9c-0.3,0.1-0.6,0.2-0.9,0.3c-0.3,0.1-0.5,0.3-0.7,0.4c-0.2,0.1-0.3,0.3-0.5,0.6
		c-0.1,0.2-0.2,0.5-0.2,0.8c0,0.4,0.1,0.7,0.3,0.9s0.4,0.3,0.7,0.3c0.3,0,0.5-0.1,0.7-0.2c0.2-0.1,0.3-0.3,0.5-0.4L93.6,55.9z"/>
	<path d="M109.1,60.1h-6.4v-0.6c0.2,0,0.4,0,0.7-0.1s0.6-0.1,0.7-0.1c0.2-0.1,0.3-0.1,0.4-0.3s0.1-0.3,0.1-0.5v-5h-2v-0.7h0.4
		c0.5,0,0.8,0,1.2-0.1s0.6-0.2,0.8-0.4c0.2-0.1,0.4-0.3,0.6-0.5s0.3-0.3,0.3-0.4h1.4c0,0.3,0,0.7,0,1.2s0,0.9,0,1.2v4.6
		c0,0.2,0,0.4,0.1,0.5s0.2,0.2,0.3,0.3c0.1,0.1,0.4,0.1,0.7,0.2s0.6,0.1,0.7,0.1V60.1z"/>
	<path d="M114,53.9c0,0.4-0.2,0.8-0.5,1.1s-0.7,0.5-1.1,0.5c-0.4,0-0.8-0.1-1.1-0.4s-0.5-0.7-0.5-1.1s0.2-0.8,0.5-1.1
		s0.7-0.5,1.1-0.5c0.4,0,0.8,0.2,1.1,0.5S114,53.5,114,53.9z M114,58.8c0,0.4-0.2,0.8-0.5,1.1s-0.7,0.5-1.1,0.5
		c-0.4,0-0.8-0.1-1.1-0.4s-0.5-0.7-0.5-1.1s0.2-0.8,0.5-1.1s0.7-0.5,1.1-0.5c0.4,0,0.8,0.2,1.1,0.5S114,58.4,114,58.8z"/>
	<path d="M132.1,60.1h-6v-0.6c0.3,0,0.6-0.1,1-0.2c0.4-0.1,0.6-0.2,0.6-0.3c0,0,0-0.1,0-0.1s0-0.1-0.1-0.2l-0.9-2.3h-3.8
		c-0.1,0.2-0.2,0.5-0.3,0.8s-0.2,0.5-0.3,0.8c-0.1,0.3-0.2,0.5-0.2,0.6c0,0.1,0,0.2,0,0.3c0,0.2,0.1,0.3,0.4,0.4
		c0.3,0.1,0.7,0.2,1.3,0.3v0.6H119v-0.6c0.2,0,0.4,0,0.6-0.1s0.4-0.1,0.5-0.2c0.2-0.1,0.4-0.3,0.5-0.5s0.3-0.4,0.4-0.6
		c0.6-1.5,1.2-2.9,1.8-4.4s1.3-3.1,2-4.9h1.6c1,2.5,1.8,4.5,2.4,6s1.1,2.7,1.5,3.6c0.1,0.2,0.2,0.3,0.3,0.4s0.3,0.2,0.4,0.4
		c0.1,0.1,0.3,0.1,0.5,0.2s0.4,0.1,0.5,0.1V60.1z M126.2,55.6l-1.6-4l-1.6,4H126.2z"/>
	<path d="M142.4,60.1h-4.7v-0.6c0.1,0,0.2,0,0.4,0s0.2,0,0.3-0.1c0.1-0.1,0.2-0.1,0.2-0.2s0.1-0.3,0.1-0.5V55c0-0.5-0.1-0.9-0.3-1.2
		c-0.2-0.3-0.5-0.4-0.9-0.4c-0.2,0-0.4,0-0.6,0.1c-0.2,0.1-0.4,0.2-0.5,0.3c-0.2,0.1-0.3,0.2-0.4,0.3c-0.1,0.1-0.2,0.2-0.2,0.3v4.2
		c0,0.2,0,0.3,0.1,0.5s0.1,0.2,0.3,0.3c0.1,0,0.2,0.1,0.3,0.1s0.2,0.1,0.4,0.1v0.6h-4.8v-0.6c0.1,0,0.3,0,0.4,0s0.2,0,0.3-0.1
		c0.2-0.1,0.3-0.1,0.3-0.3s0.1-0.3,0.1-0.5v-4.5c0-0.2,0-0.3-0.1-0.5s-0.2-0.3-0.3-0.4c-0.1-0.1-0.2-0.1-0.4-0.2s-0.3-0.1-0.5-0.1
		v-0.6l3.7-0.2l0.1,0.1v1.1h0c0.1-0.1,0.3-0.3,0.5-0.5s0.4-0.3,0.6-0.4c0.2-0.1,0.4-0.2,0.8-0.3s0.6-0.1,1-0.1
		c0.8,0,1.5,0.2,1.9,0.7s0.6,1.1,0.6,1.9v3.8c0,0.2,0,0.3,0.1,0.5s0.2,0.2,0.3,0.3c0.1,0,0.2,0.1,0.3,0.1s0.3,0.1,0.4,0.1V60.1z"/>
	<path d="M148.9,59.8c-0.3,0.1-0.7,0.3-1.1,0.4s-0.8,0.2-1.4,0.2c-0.8,0-1.4-0.2-1.8-0.6s-0.6-1-0.6-1.7v-4.8h-1.4v-0.9h1.4V50h2.5
		v2.4h2.2v0.9h-2.2v4.3c0,0.6,0.1,1,0.3,1.3c0.2,0.3,0.5,0.4,0.9,0.4c0.1,0,0.3,0,0.6,0s0.4,0,0.5-0.1V59.8z"/>
	<path d="M157.9,58.2c-0.2,0.3-0.4,0.6-0.7,0.8s-0.6,0.5-0.9,0.7c-0.3,0.2-0.7,0.3-1.1,0.4s-0.8,0.2-1.2,0.2c-0.8,0-1.4-0.1-2-0.3
		s-1-0.5-1.4-0.9s-0.6-0.8-0.8-1.3s-0.3-1-0.3-1.6c0-0.5,0.1-1,0.3-1.5s0.5-0.9,0.8-1.3c0.4-0.4,0.8-0.7,1.3-0.9s1.1-0.3,1.8-0.3
		c0.7,0,1.3,0.1,1.8,0.3s0.9,0.4,1.2,0.7c0.3,0.3,0.5,0.6,0.6,1.1s0.2,0.8,0.2,1.3V56h-5.3c0,1.1,0.2,1.9,0.6,2.4s1.1,0.8,2,0.8
		c0.5,0,0.9-0.1,1.3-0.4s0.7-0.6,1-1L157.9,58.2z M154.9,55.3c0-0.3,0-0.6,0-1s-0.1-0.6-0.2-0.8c-0.1-0.2-0.2-0.4-0.4-0.6
		s-0.3-0.2-0.6-0.2c-0.4,0-0.7,0.2-1,0.6s-0.4,1-0.4,1.9L154.9,55.3z"/>
	<path d="M163.1,60.4c-0.7,0-1.4-0.1-1.9-0.3s-1-0.5-1.4-0.9c-0.4-0.4-0.6-0.8-0.8-1.3s-0.3-1.1-0.3-1.6c0-0.5,0.1-1.1,0.3-1.5
		s0.5-0.9,0.9-1.3c0.4-0.4,0.9-0.7,1.4-0.9s1.2-0.3,1.9-0.3c1,0,1.7,0.2,2.3,0.5s0.8,0.9,0.8,1.5c0,0.4-0.1,0.7-0.3,0.9
		s-0.5,0.3-1,0.3c-0.4,0-0.7-0.1-1-0.3s-0.4-0.4-0.4-0.7c0-0.3,0-0.5,0.1-0.8s0.1-0.4,0.1-0.6c-0.1-0.1-0.1-0.2-0.2-0.2
		s-0.2-0.1-0.4-0.1c-0.2,0-0.4,0.1-0.6,0.2s-0.4,0.3-0.5,0.6c-0.2,0.3-0.3,0.6-0.4,1s-0.1,1-0.1,1.6c0,0.9,0.2,1.7,0.7,2.2
		s1,0.9,1.6,0.9c0.6,0,1-0.1,1.4-0.4s0.6-0.6,0.9-1.1l0.6,0.4c-0.2,0.3-0.4,0.6-0.6,0.9s-0.5,0.5-0.8,0.7c-0.3,0.2-0.7,0.4-1,0.5
		S163.5,60.4,163.1,60.4z"/>
	<path d="M175.5,58.2c-0.2,0.3-0.4,0.6-0.7,0.8s-0.6,0.5-0.9,0.7c-0.3,0.2-0.7,0.3-1.1,0.4s-0.8,0.2-1.2,0.2c-0.8,0-1.4-0.1-2-0.3
		s-1-0.5-1.4-0.9c-0.4-0.4-0.6-0.8-0.8-1.3s-0.3-1-0.3-1.6c0-0.5,0.1-1,0.3-1.5s0.5-0.9,0.8-1.3c0.4-0.4,0.8-0.7,1.3-0.9
		s1.1-0.3,1.8-0.3c0.7,0,1.3,0.1,1.8,0.3s0.9,0.4,1.2,0.7c0.3,0.3,0.5,0.6,0.6,1.1s0.2,0.8,0.2,1.3V56H170c0,1.1,0.2,1.9,0.6,2.4
		s1.1,0.8,2,0.8c0.5,0,0.9-0.1,1.3-0.4s0.7-0.6,1-1L175.5,58.2z M172.5,55.3c0-0.3,0-0.6,0-1s-0.1-0.6-0.2-0.8
		c-0.1-0.2-0.2-0.4-0.4-0.6s-0.3-0.2-0.6-0.2c-0.4,0-0.7,0.2-1,0.6s-0.4,1-0.4,1.9L172.5,55.3z"/>
	<path d="M186.4,59.9l-3.9,0.2l-0.1-0.1v-0.7l-0.1,0c-0.3,0.3-0.6,0.5-1,0.7c-0.4,0.2-0.9,0.3-1.3,0.3c-1.1,0-1.9-0.4-2.6-1.2
		c-0.7-0.8-1-1.8-1-3c0-1.1,0.4-2,1.1-2.8c0.8-0.8,1.7-1.2,2.8-1.2c0.4,0,0.8,0,1.2,0.1c0.4,0.1,0.7,0.2,0.9,0.3v-2.6
		c0-0.2,0-0.4-0.1-0.5s-0.2-0.3-0.3-0.4c-0.2-0.1-0.4-0.2-0.6-0.2s-0.5-0.1-0.7-0.1v-0.6l4.2-0.2l0.1,0.1v10.2c0,0.2,0,0.4,0.1,0.5
		c0.1,0.1,0.2,0.2,0.3,0.3c0.1,0.1,0.3,0.1,0.5,0.1s0.4,0,0.5,0V59.9z M182.4,58.6v-4.4c0-0.1-0.1-0.3-0.2-0.4
		c-0.1-0.1-0.2-0.3-0.3-0.4c-0.1-0.1-0.2-0.2-0.4-0.3s-0.4-0.1-0.6-0.1c-0.5,0-0.9,0.3-1.3,0.9c-0.3,0.6-0.5,1.4-0.5,2.5
		c0,0.4,0,0.8,0.1,1.1c0.1,0.3,0.2,0.6,0.3,0.9s0.3,0.5,0.6,0.6c0.2,0.2,0.5,0.2,0.9,0.2c0.3,0,0.6-0.1,0.8-0.2
		C182,58.9,182.2,58.8,182.4,58.6z"/>
	<path d="M195.3,58.2c-0.2,0.3-0.4,0.6-0.7,0.8s-0.6,0.5-0.9,0.7c-0.3,0.2-0.7,0.3-1.1,0.4s-0.8,0.2-1.2,0.2c-0.8,0-1.4-0.1-2-0.3
		s-1-0.5-1.4-0.9s-0.6-0.8-0.8-1.3s-0.3-1-0.3-1.6c0-0.5,0.1-1,0.3-1.5s0.5-0.9,0.8-1.3c0.4-0.4,0.8-0.7,1.3-0.9s1.1-0.3,1.8-0.3
		c0.7,0,1.3,0.1,1.8,0.3s0.9,0.4,1.2,0.7c0.3,0.3,0.5,0.6,0.6,1.1s0.2,0.8,0.2,1.3V56h-5.3c0,1.1,0.2,1.9,0.6,2.4s1.1,0.8,2,0.8
		c0.5,0,0.9-0.1,1.3-0.4s0.7-0.6,1-1L195.3,58.2z M192.3,55.3c0-0.3,0-0.6,0-1s-0.1-0.6-0.2-0.8c-0.1-0.2-0.2-0.4-0.4-0.6
		s-0.3-0.2-0.6-0.2c-0.4,0-0.7,0.2-1,0.6s-0.4,1-0.4,1.9L192.3,55.3z"/>
	<path d="M206.3,60.1h-4.7v-0.6c0.1,0,0.2,0,0.4,0s0.2,0,0.3-0.1c0.1-0.1,0.2-0.1,0.2-0.2s0.1-0.3,0.1-0.5V55c0-0.5-0.1-0.9-0.3-1.2
		c-0.2-0.3-0.5-0.4-0.9-0.4c-0.2,0-0.4,0-0.6,0.1c-0.2,0.1-0.4,0.2-0.5,0.3c-0.2,0.1-0.3,0.2-0.4,0.3c-0.1,0.1-0.2,0.2-0.2,0.3v4.2
		c0,0.2,0,0.3,0.1,0.5s0.1,0.2,0.3,0.3c0.1,0,0.2,0.1,0.3,0.1s0.2,0.1,0.4,0.1v0.6H196v-0.6c0.1,0,0.3,0,0.4,0s0.2,0,0.3-0.1
		c0.2-0.1,0.3-0.1,0.3-0.3s0.1-0.3,0.1-0.5v-4.5c0-0.2,0-0.3-0.1-0.5s-0.2-0.3-0.3-0.4c-0.1-0.1-0.2-0.1-0.4-0.2s-0.3-0.1-0.5-0.1
		v-0.6l3.7-0.2l0.1,0.1v1.1h0c0.1-0.1,0.3-0.3,0.5-0.5s0.4-0.3,0.6-0.4c0.2-0.1,0.4-0.2,0.8-0.3s0.6-0.1,1-0.1
		c0.8,0,1.5,0.2,1.9,0.7s0.6,1.1,0.6,1.9v3.8c0,0.2,0,0.3,0.1,0.5s0.2,0.2,0.3,0.3c0.1,0,0.2,0.1,0.3,0.1s0.3,0.1,0.4,0.1V60.1z"/>
	<path d="M212.9,59.8c-0.3,0.1-0.7,0.3-1.1,0.4s-0.8,0.2-1.4,0.2c-0.8,0-1.4-0.2-1.8-0.6s-0.6-1-0.6-1.7v-4.8h-1.4v-0.9h1.4V50h2.5
		v2.4h2.2v0.9h-2.2v4.3c0,0.6,0.1,1,0.3,1.3c0.2,0.3,0.5,0.4,0.9,0.4c0.1,0,0.3,0,0.6,0s0.4,0,0.5-0.1V59.8z"/>
	<path d="M221.8,58.2c-0.2,0.3-0.4,0.6-0.7,0.8s-0.6,0.5-0.9,0.7c-0.3,0.2-0.7,0.3-1.1,0.4s-0.8,0.2-1.2,0.2c-0.8,0-1.4-0.1-2-0.3
		s-1-0.5-1.4-0.9s-0.6-0.8-0.8-1.3s-0.3-1-0.3-1.6c0-0.5,0.1-1,0.3-1.5s0.5-0.9,0.8-1.3c0.4-0.4,0.8-0.7,1.3-0.9s1.1-0.3,1.8-0.3
		c0.7,0,1.3,0.1,1.8,0.3s0.9,0.4,1.2,0.7c0.3,0.3,0.5,0.6,0.6,1.1s0.2,0.8,0.2,1.3V56h-5.3c0,1.1,0.2,1.9,0.6,2.4s1.1,0.8,2,0.8
		c0.5,0,0.9-0.1,1.3-0.4s0.7-0.6,1-1L221.8,58.2z M218.8,55.3c0-0.3,0-0.6,0-1s-0.1-0.6-0.2-0.8c-0.1-0.2-0.2-0.4-0.4-0.6
		s-0.3-0.2-0.6-0.2c-0.4,0-0.7,0.2-1,0.6s-0.4,1-0.4,1.9L218.8,55.3z"/>
	<path d="M226.2,60.4c-0.5,0-1-0.1-1.5-0.2s-0.9-0.3-1.1-0.5l-0.2,0.5h-0.6l-0.1-2.9h0.6c0.1,0.2,0.2,0.5,0.4,0.8s0.4,0.6,0.6,0.8
		c0.2,0.2,0.5,0.4,0.8,0.6s0.7,0.2,1,0.2c0.5,0,0.8-0.1,1.1-0.3s0.3-0.5,0.3-0.9c0-0.2-0.1-0.4-0.2-0.5s-0.2-0.3-0.4-0.4
		c-0.2-0.1-0.4-0.2-0.7-0.3s-0.5-0.2-0.9-0.3s-0.7-0.2-0.9-0.3s-0.5-0.3-0.8-0.5c-0.2-0.2-0.4-0.4-0.6-0.7s-0.2-0.6-0.2-1
		c0-0.7,0.3-1.3,0.9-1.8s1.4-0.7,2.4-0.7c0.5,0,0.9,0,1.3,0.1s0.7,0.2,1,0.3l0.2-0.5h0.6l0.1,2.7h-0.5c-0.2-0.5-0.5-1-0.9-1.4
		s-0.9-0.6-1.4-0.6c-0.4,0-0.7,0.1-0.9,0.2s-0.3,0.4-0.3,0.7c0,0.4,0.2,0.7,0.5,0.9s0.8,0.3,1.4,0.5c0.9,0.2,1.6,0.6,2,1
		s0.6,0.9,0.6,1.6c0,0.9-0.3,1.5-1,2S227.3,60.4,226.2,60.4z"/>
</g>
</svg>
