<?xml version="1.0" encoding="utf-8"?>
<!-- Generator: Adobe Illustrator 24.3.0, SVG Export Plug-In . SVG Version: 6.00 Build 0)  -->
<svg version="1.1" id="Capa_1" xmlns="http://www.w3.org/2000/svg" xmlns:xlink="http://www.w3.org/1999/xlink" x="0px" y="0px"
	 viewBox="0 0 270 150" style="enable-background:new 0 0 270 150;" xml:space="preserve">
<style type="text/css">
	.st0{enable-background:new    ;}
</style>
<g class="st0">
	<path d="M49,90.6c0,0.8-0.3,1.5-0.8,2.1c-0.5,0.6-1.2,0.9-2.1,0.9c-0.4,0-0.7,0-0.9-0.1c-0.2-0.1-0.4-0.2-0.6-0.3h0v1.6
		c0,0.1,0,0.3,0.1,0.4s0.1,0.2,0.3,0.2c0.1,0,0.3,0.1,0.4,0.1s0.4,0.1,0.5,0.1V96h-4.2v-0.4c0.1,0,0.2,0,0.4,0s0.3,0,0.3-0.1
		c0.1,0,0.2-0.1,0.3-0.2s0.1-0.2,0.1-0.4v-6c0-0.1,0-0.2-0.1-0.3s-0.1-0.2-0.2-0.3c-0.1-0.1-0.2-0.1-0.3-0.1s-0.3-0.1-0.4-0.1v-0.4
		l2.9-0.2l0.1,0.1v0.7l0,0c0.3-0.3,0.5-0.5,0.9-0.6c0.3-0.1,0.6-0.2,0.9-0.2c0.8,0,1.4,0.3,1.9,0.9S49,89.7,49,90.6z M46.9,90.6
		c0-0.3,0-0.6-0.1-0.8c0-0.3-0.1-0.5-0.2-0.7c-0.1-0.2-0.2-0.4-0.4-0.5c-0.2-0.1-0.4-0.2-0.6-0.2c-0.3,0-0.5,0-0.6,0.1
		s-0.3,0.2-0.4,0.3v3.3c0,0.1,0.1,0.2,0.1,0.3c0.1,0.1,0.1,0.2,0.2,0.3c0.1,0.1,0.2,0.2,0.3,0.2c0.1,0.1,0.3,0.1,0.4,0.1
		c0.4,0,0.7-0.2,0.9-0.6C46.8,92,46.9,91.4,46.9,90.6z"/>
	<path d="M53.3,93.4h-3.7V93c0.1,0,0.2,0,0.3,0s0.2,0,0.3-0.1c0.1,0,0.2-0.1,0.3-0.2s0.1-0.2,0.1-0.3v-6.5c0-0.1,0-0.3-0.1-0.4
		s-0.1-0.2-0.2-0.3c-0.1-0.1-0.2-0.1-0.4-0.1s-0.3-0.1-0.4-0.1v-0.4l3-0.2l0.1,0.1v7.8c0,0.1,0,0.3,0.1,0.4s0.1,0.2,0.2,0.2
		c0.1,0,0.2,0.1,0.2,0.1c0.1,0,0.2,0,0.3,0.1V93.4z"/>
	<path d="M57.6,93.4h-3.7V93c0.1,0,0.2,0,0.3,0s0.2,0,0.3-0.1c0.1,0,0.2-0.1,0.3-0.2s0.1-0.2,0.1-0.3V89c0-0.1,0-0.3-0.1-0.4
		s-0.1-0.2-0.2-0.2c-0.1,0-0.2-0.1-0.3-0.1s-0.3-0.1-0.4-0.1v-0.4l2.9-0.2l0.1,0.1v4.7c0,0.1,0,0.3,0.1,0.3s0.1,0.2,0.3,0.2
		c0.1,0,0.2,0.1,0.3,0.1s0.2,0,0.3,0.1V93.4z M56.7,85.4c0,0.3-0.1,0.5-0.3,0.8s-0.5,0.3-0.8,0.3c-0.3,0-0.6-0.1-0.8-0.3
		s-0.3-0.5-0.3-0.8s0.1-0.6,0.3-0.8s0.5-0.3,0.8-0.3s0.6,0.1,0.8,0.3S56.7,85.2,56.7,85.4z"/>
	<path d="M64.4,92c-0.1,0.2-0.3,0.4-0.5,0.6s-0.4,0.4-0.7,0.5c-0.3,0.1-0.5,0.3-0.8,0.3s-0.6,0.1-0.9,0.1c-0.6,0-1.1-0.1-1.5-0.2
		s-0.8-0.4-1-0.7s-0.5-0.6-0.6-1s-0.2-0.8-0.2-1.2c0-0.4,0.1-0.8,0.2-1.1s0.4-0.7,0.6-1c0.3-0.3,0.6-0.5,1-0.7s0.9-0.3,1.4-0.3
		c0.5,0,1,0.1,1.3,0.2s0.6,0.3,0.9,0.6c0.2,0.2,0.4,0.5,0.5,0.8s0.2,0.6,0.2,1v0.4h-4c0,0.8,0.2,1.4,0.5,1.8s0.8,0.6,1.5,0.6
		c0.4,0,0.7-0.1,1-0.3s0.5-0.5,0.8-0.8L64.4,92z M62.2,89.8c0-0.2,0-0.5,0-0.7s-0.1-0.4-0.1-0.6c-0.1-0.2-0.2-0.3-0.3-0.4
		s-0.3-0.1-0.4-0.1c-0.3,0-0.5,0.2-0.7,0.5s-0.3,0.8-0.3,1.4L62.2,89.8z"/>
	<path d="M71.6,88.3h-1.3c0.2,0.2,0.3,0.4,0.3,0.5s0.1,0.4,0.1,0.6c0,0.3-0.1,0.5-0.2,0.8c-0.1,0.2-0.3,0.4-0.6,0.6
		c-0.2,0.2-0.5,0.3-0.8,0.4s-0.7,0.1-1,0.1h-1c0,0-0.1,0.1-0.2,0.2c-0.1,0.1-0.1,0.2-0.1,0.2c0,0.2,0.1,0.3,0.2,0.4
		c0.1,0.1,0.4,0.1,0.7,0.1c0.4,0,0.7,0,1.1,0s0.6,0,0.8,0c0.2,0,0.5,0.1,0.7,0.1s0.4,0.2,0.6,0.3c0.2,0.1,0.3,0.3,0.4,0.5
		s0.2,0.5,0.2,0.7c0,0.3-0.1,0.6-0.2,0.8s-0.4,0.5-0.7,0.7c-0.3,0.2-0.7,0.4-1.1,0.5S68.6,96,68,96c-1,0-1.8-0.1-2.3-0.4
		s-0.8-0.6-0.8-1.1c0-0.3,0.1-0.6,0.4-0.8c0.3-0.2,0.7-0.3,1.3-0.3v-0.1c-0.4-0.1-0.6-0.3-0.8-0.5c-0.2-0.2-0.3-0.4-0.3-0.7
		c0-0.2,0-0.3,0.1-0.4s0.2-0.2,0.3-0.3c0.1-0.1,0.2-0.1,0.4-0.2c0.2-0.1,0.3-0.1,0.4-0.1v-0.1c-0.5-0.2-0.9-0.4-1.2-0.7
		s-0.4-0.6-0.4-1c0-0.6,0.3-1,0.8-1.4s1.2-0.5,2-0.5c0.3,0,0.5,0,0.8,0.1s0.4,0.1,0.6,0.1h2.3V88.3z M69.8,94.3c0-0.1,0-0.3-0.1-0.4
		c-0.1-0.1-0.2-0.2-0.5-0.3c-0.1,0-0.4,0-0.7,0s-0.8,0-1.3,0c-0.1,0.1-0.3,0.3-0.3,0.4c-0.1,0.2-0.1,0.4-0.1,0.6
		c0,0.1,0,0.2,0.1,0.3c0.1,0.1,0.1,0.2,0.3,0.3c0.1,0.1,0.3,0.2,0.5,0.3s0.4,0.1,0.8,0.1c0.5,0,0.9-0.1,1.2-0.3
		C69.7,95.1,69.8,94.8,69.8,94.3z M68.8,89.4c0-0.5-0.1-0.8-0.2-1.1c-0.1-0.3-0.4-0.4-0.7-0.4c-0.2,0-0.3,0-0.4,0.1
		s-0.2,0.2-0.3,0.3c-0.1,0.1-0.1,0.3-0.1,0.5s0,0.4,0,0.5c0,0.4,0.1,0.8,0.2,1c0.1,0.3,0.4,0.4,0.6,0.4c0.3,0,0.5-0.1,0.6-0.4
		S68.8,89.8,68.8,89.4z"/>
	<path d="M79.6,93.3l-2.8,0.2l-0.1-0.1v-0.8h0c-0.1,0.1-0.3,0.2-0.4,0.4c-0.1,0.1-0.3,0.2-0.5,0.3c-0.2,0.1-0.4,0.2-0.6,0.2
		c-0.2,0.1-0.4,0.1-0.8,0.1c-0.6,0-1-0.2-1.4-0.5c-0.3-0.4-0.5-0.9-0.5-1.5v-2.6c0-0.2,0-0.3-0.1-0.4s-0.1-0.2-0.2-0.3
		c-0.1-0.1-0.2-0.1-0.3-0.1c-0.1,0-0.2,0-0.3,0v-0.4l2.8-0.2l0.1,0.1v3.9c0,0.4,0.1,0.7,0.2,0.9s0.4,0.3,0.6,0.3
		c0.3,0,0.5-0.1,0.7-0.2s0.4-0.3,0.5-0.5v-3.2c0-0.1,0-0.3-0.1-0.4s-0.1-0.2-0.2-0.3c-0.1,0-0.2-0.1-0.3-0.1s-0.3,0-0.4,0v-0.4
		l2.8-0.2l0.1,0.1v4.5c0,0.1,0,0.3,0.1,0.3s0.1,0.2,0.2,0.2c0.1,0,0.2,0.1,0.3,0.1c0.1,0,0.2,0,0.4,0V93.3z"/>
	<path d="M86.3,92c-0.1,0.2-0.3,0.4-0.5,0.6s-0.4,0.4-0.7,0.5c-0.3,0.1-0.5,0.3-0.8,0.3s-0.6,0.1-0.9,0.1c-0.6,0-1.1-0.1-1.5-0.2
		s-0.8-0.4-1-0.7s-0.5-0.6-0.6-1s-0.2-0.8-0.2-1.2c0-0.4,0.1-0.8,0.2-1.1s0.4-0.7,0.6-1c0.3-0.3,0.6-0.5,1-0.7s0.9-0.3,1.4-0.3
		c0.5,0,1,0.1,1.3,0.2s0.6,0.3,0.9,0.6c0.2,0.2,0.4,0.5,0.5,0.8s0.2,0.6,0.2,1v0.4h-4c0,0.8,0.2,1.4,0.5,1.8s0.8,0.6,1.5,0.6
		c0.4,0,0.7-0.1,1-0.3s0.5-0.5,0.8-0.8L86.3,92z M84.1,89.8c0-0.2,0-0.5,0-0.7s-0.1-0.4-0.1-0.6c-0.1-0.2-0.2-0.3-0.3-0.4
		s-0.3-0.1-0.4-0.1c-0.3,0-0.5,0.2-0.7,0.5s-0.3,0.8-0.3,1.4L84.1,89.8z"/>
	<path d="M96.6,88.1c-0.2,0-0.3,0.1-0.5,0.2s-0.3,0.3-0.4,0.5c-0.3,0.7-0.7,1.5-1,2.3s-0.8,1.7-1.2,2.6c-0.2,0.5-0.5,0.9-0.7,1.3
		s-0.4,0.6-0.6,0.7c-0.2,0.2-0.4,0.3-0.6,0.3S91.1,96,91,96c-0.4,0-0.7-0.1-0.9-0.3s-0.3-0.4-0.3-0.7c0-0.1,0-0.2,0-0.3
		s0.1-0.2,0.2-0.3c0.1-0.1,0.2-0.2,0.3-0.2c0.1-0.1,0.3-0.1,0.4-0.1c0.2,0,0.4,0.1,0.6,0.2s0.4,0.4,0.6,0.6c0.1-0.1,0.3-0.3,0.5-0.6
		c0.2-0.3,0.3-0.5,0.4-0.8c-0.5-1-0.9-1.8-1.2-2.5c-0.4-0.7-0.8-1.5-1.2-2.4c-0.1-0.2-0.2-0.3-0.4-0.4s-0.3-0.2-0.5-0.2v-0.4H93v0.4
		c-0.1,0-0.3,0-0.5,0.1c-0.2,0.1-0.3,0.1-0.3,0.2c0,0,0,0.1,0,0.1s0,0.1,0.1,0.2c0.1,0.3,0.3,0.7,0.6,1.1c0.2,0.5,0.5,1.1,0.9,1.7
		c0.2-0.6,0.4-1,0.6-1.4c0.2-0.4,0.3-0.8,0.5-1.2c0-0.1,0.1-0.2,0.1-0.2s0-0.1,0-0.1c0-0.1,0-0.1-0.1-0.2c-0.1-0.1-0.1-0.1-0.2-0.1
		c-0.1,0-0.2-0.1-0.3-0.1s-0.2,0-0.2,0v-0.4h2.4V88.1z"/>
	<path d="M106.3,88.3H105c0.2,0.2,0.3,0.4,0.3,0.5s0.1,0.4,0.1,0.6c0,0.3-0.1,0.5-0.2,0.8c-0.1,0.2-0.3,0.4-0.6,0.6
		c-0.2,0.2-0.5,0.3-0.8,0.4s-0.7,0.1-1,0.1h-1c0,0-0.1,0.1-0.2,0.2c-0.1,0.1-0.1,0.2-0.1,0.2c0,0.2,0.1,0.3,0.2,0.4
		c0.1,0.1,0.4,0.1,0.7,0.1c0.4,0,0.7,0,1.1,0s0.6,0,0.8,0c0.2,0,0.5,0.1,0.7,0.1s0.4,0.2,0.6,0.3c0.2,0.1,0.3,0.3,0.4,0.5
		s0.2,0.5,0.2,0.7c0,0.3-0.1,0.6-0.2,0.8s-0.4,0.5-0.7,0.7c-0.3,0.2-0.7,0.4-1.1,0.5s-1,0.2-1.6,0.2c-1,0-1.8-0.1-2.3-0.4
		s-0.8-0.6-0.8-1.1c0-0.3,0.1-0.6,0.4-0.8c0.3-0.2,0.7-0.3,1.3-0.3v-0.1c-0.4-0.1-0.6-0.3-0.8-0.5c-0.2-0.2-0.3-0.4-0.3-0.7
		c0-0.2,0-0.3,0.1-0.4s0.2-0.2,0.3-0.3c0.1-0.1,0.2-0.1,0.4-0.2c0.2-0.1,0.3-0.1,0.4-0.1v-0.1c-0.5-0.2-0.9-0.4-1.2-0.7
		s-0.4-0.6-0.4-1c0-0.6,0.3-1,0.8-1.4s1.2-0.5,2-0.5c0.3,0,0.5,0,0.8,0.1s0.4,0.1,0.6,0.1h2.3V88.3z M104.5,94.3
		c0-0.1,0-0.3-0.1-0.4c-0.1-0.1-0.2-0.2-0.5-0.3c-0.1,0-0.4,0-0.7,0s-0.8,0-1.3,0c-0.1,0.1-0.3,0.3-0.3,0.4
		c-0.1,0.2-0.1,0.4-0.1,0.6c0,0.1,0,0.2,0.1,0.3c0.1,0.1,0.1,0.2,0.3,0.3c0.1,0.1,0.3,0.2,0.5,0.3s0.4,0.1,0.8,0.1
		c0.5,0,0.9-0.1,1.2-0.3C104.4,95.1,104.5,94.8,104.5,94.3z M103.5,89.4c0-0.5-0.1-0.8-0.2-1.1c-0.1-0.3-0.4-0.4-0.7-0.4
		c-0.2,0-0.3,0-0.4,0.1s-0.2,0.2-0.3,0.3c-0.1,0.1-0.1,0.3-0.1,0.5s0,0.4,0,0.5c0,0.4,0.1,0.8,0.2,1c0.1,0.3,0.4,0.4,0.6,0.4
		c0.3,0,0.5-0.1,0.6-0.4S103.5,89.8,103.5,89.4z"/>
	<path d="M112.9,92c-0.1,0.2-0.3,0.4-0.5,0.6s-0.4,0.4-0.7,0.5c-0.3,0.1-0.5,0.3-0.8,0.3s-0.6,0.1-0.9,0.1c-0.6,0-1.1-0.1-1.5-0.2
		s-0.8-0.4-1-0.7s-0.5-0.6-0.6-1s-0.2-0.8-0.2-1.2c0-0.4,0.1-0.8,0.2-1.1s0.4-0.7,0.6-1c0.3-0.3,0.6-0.5,1-0.7s0.9-0.3,1.4-0.3
		c0.5,0,1,0.1,1.3,0.2s0.6,0.3,0.9,0.6c0.2,0.2,0.4,0.5,0.5,0.8s0.2,0.6,0.2,1v0.4h-4c0,0.8,0.2,1.4,0.5,1.8s0.8,0.6,1.5,0.6
		c0.4,0,0.7-0.1,1-0.3s0.5-0.5,0.8-0.8L112.9,92z M110.7,89.8c0-0.2,0-0.5,0-0.7s-0.1-0.4-0.1-0.6c-0.1-0.2-0.2-0.3-0.3-0.4
		s-0.3-0.1-0.4-0.1c-0.3,0-0.5,0.2-0.7,0.5s-0.3,0.8-0.3,1.4L110.7,89.8z"/>
	<path d="M119.5,88.3c0.3,0.3,0.5,0.6,0.7,1s0.2,0.8,0.2,1.2c0,0.4-0.1,0.8-0.2,1.2s-0.4,0.7-0.7,1c-0.3,0.3-0.7,0.5-1.1,0.7
		s-0.9,0.2-1.5,0.2c-0.5,0-0.9-0.1-1.3-0.2s-0.8-0.3-1.1-0.6c-0.3-0.3-0.5-0.6-0.7-1s-0.3-0.8-0.3-1.3c0-0.5,0.1-0.9,0.2-1.3
		s0.4-0.7,0.7-1c0.3-0.3,0.6-0.5,1.1-0.6s0.9-0.2,1.4-0.2c0.5,0,1,0.1,1.4,0.2S119.2,88,119.5,88.3z M118,92.4
		c0.1-0.2,0.1-0.5,0.2-0.8s0.1-0.7,0.1-1.1c0-0.3,0-0.6-0.1-0.9s-0.1-0.6-0.2-0.8c-0.1-0.2-0.2-0.4-0.4-0.6s-0.4-0.2-0.6-0.2
		c-0.3,0-0.5,0.1-0.7,0.2s-0.3,0.3-0.4,0.6c-0.1,0.2-0.1,0.5-0.2,0.8s0,0.6,0,0.9c0,0.4,0,0.8,0,1.1s0.1,0.6,0.2,0.8
		c0.1,0.2,0.2,0.4,0.4,0.6s0.4,0.2,0.6,0.2c0.2,0,0.4-0.1,0.6-0.2S117.9,92.6,118,92.4z"/>
	<path d="M132.8,93.4h-3.5V93c0.1,0,0.2,0,0.3,0s0.2,0,0.2-0.1c0.1,0,0.1-0.1,0.2-0.2c0-0.1,0-0.2,0-0.4v-2.7c0-0.4-0.1-0.7-0.2-0.9
		c-0.1-0.2-0.3-0.3-0.6-0.3c-0.2,0-0.3,0-0.5,0.1c-0.1,0.1-0.3,0.1-0.4,0.2c-0.1,0.1-0.2,0.2-0.3,0.2c-0.1,0.1-0.1,0.2-0.2,0.2v3.1
		c0,0.1,0,0.3,0,0.3s0.1,0.2,0.2,0.2c0.1,0,0.1,0.1,0.2,0.1c0.1,0,0.2,0,0.3,0.1v0.4h-3.3V93c0.1,0,0.2,0,0.3,0s0.2,0,0.2-0.1
		c0.1,0,0.1-0.1,0.2-0.2c0-0.1,0-0.2,0-0.4v-2.7c0-0.4-0.1-0.7-0.2-0.9c-0.1-0.2-0.3-0.3-0.6-0.3c-0.2,0-0.3,0-0.5,0.1
		c-0.1,0.1-0.3,0.1-0.4,0.2c-0.1,0.1-0.2,0.2-0.3,0.2c-0.1,0.1-0.1,0.2-0.2,0.2v3.1c0,0.1,0,0.2,0.1,0.3s0.1,0.2,0.2,0.2
		c0.1,0,0.1,0.1,0.2,0.1s0.2,0,0.3,0.1v0.4h-3.5V93c0.1,0,0.2,0,0.3,0s0.2,0,0.3-0.1c0.1,0,0.2-0.1,0.3-0.2s0.1-0.2,0.1-0.3V89
		c0-0.1,0-0.2-0.1-0.4s-0.1-0.2-0.2-0.3c-0.1,0-0.2-0.1-0.3-0.1s-0.2-0.1-0.4-0.1v-0.4l2.8-0.2l0.1,0.1v0.8h0
		c0.1-0.1,0.2-0.2,0.4-0.3s0.3-0.2,0.4-0.3c0.1-0.1,0.3-0.2,0.6-0.2s0.5-0.1,0.7-0.1c0.4,0,0.8,0.1,1.1,0.3s0.5,0.5,0.6,0.8h0.1
		c0.1-0.1,0.3-0.2,0.4-0.4s0.3-0.3,0.5-0.3c0.2-0.1,0.3-0.2,0.6-0.2s0.5-0.1,0.8-0.1c0.6,0,1,0.2,1.4,0.5s0.5,0.8,0.5,1.5v2.8
		c0,0.1,0,0.3,0.1,0.3s0.1,0.2,0.2,0.2c0.1,0,0.1,0.1,0.2,0.1s0.2,0,0.3,0.1V93.4z"/>
	<path d="M139.6,92c-0.1,0.2-0.3,0.4-0.5,0.6s-0.4,0.4-0.7,0.5c-0.3,0.1-0.5,0.3-0.8,0.3s-0.6,0.1-0.9,0.1c-0.6,0-1.1-0.1-1.5-0.2
		s-0.8-0.4-1-0.7s-0.5-0.6-0.6-1s-0.2-0.8-0.2-1.2c0-0.4,0.1-0.8,0.2-1.1s0.4-0.7,0.6-1c0.3-0.3,0.6-0.5,1-0.7s0.9-0.3,1.4-0.3
		c0.5,0,1,0.1,1.3,0.2s0.6,0.3,0.9,0.6c0.2,0.2,0.4,0.5,0.5,0.8s0.2,0.6,0.2,1v0.4h-4c0,0.8,0.2,1.4,0.5,1.8s0.8,0.6,1.5,0.6
		c0.4,0,0.7-0.1,1-0.3s0.5-0.5,0.8-0.8L139.6,92z M137.4,89.8c0-0.2,0-0.5,0-0.7s-0.1-0.4-0.1-0.6c-0.1-0.2-0.2-0.3-0.3-0.4
		s-0.3-0.1-0.4-0.1c-0.3,0-0.5,0.2-0.7,0.5s-0.3,0.8-0.3,1.4L137.4,89.8z"/>
	<path d="M144.5,93.2c-0.2,0.1-0.5,0.2-0.8,0.3s-0.6,0.1-1,0.1c-0.6,0-1.1-0.1-1.4-0.4c-0.3-0.3-0.4-0.7-0.4-1.3v-3.6h-1.1v-0.6h1.1
		v-1.8h1.9v1.8h1.6v0.6h-1.6v3.2c0,0.5,0.1,0.8,0.2,1c0.1,0.2,0.4,0.3,0.7,0.3c0.1,0,0.3,0,0.4,0c0.2,0,0.3,0,0.4-0.1V93.2z"/>
	<path d="M150.8,88.7c0,0.3-0.1,0.6-0.3,0.8s-0.4,0.3-0.7,0.3c-0.3,0-0.5-0.1-0.7-0.2s-0.3-0.4-0.3-0.6c0-0.1,0-0.2,0-0.3
		s0-0.1,0.1-0.2c-0.2,0-0.4,0.1-0.6,0.2s-0.4,0.3-0.5,0.5v3.2c0,0.1,0,0.2,0.1,0.3s0.1,0.2,0.2,0.2c0.1,0,0.2,0.1,0.4,0.1
		s0.3,0,0.4,0v0.4H145V93c0.1,0,0.2,0,0.3,0s0.2,0,0.3-0.1c0.1,0,0.2-0.1,0.3-0.2s0.1-0.2,0.1-0.4V89c0-0.1,0-0.3-0.1-0.4
		s-0.1-0.2-0.2-0.3c-0.1,0-0.2-0.1-0.3-0.1s-0.2-0.1-0.4-0.1v-0.4l2.8-0.2l0.1,0.1v0.8h0c0.3-0.3,0.6-0.6,0.9-0.7s0.6-0.3,0.9-0.3
		c0.4,0,0.7,0.1,0.9,0.3S150.8,88.3,150.8,88.7z"/>
	<path d="M154.9,93.4h-3.7V93c0.1,0,0.2,0,0.3,0s0.2,0,0.3-0.1c0.1,0,0.2-0.1,0.3-0.2s0.1-0.2,0.1-0.3V89c0-0.1,0-0.3-0.1-0.4
		s-0.1-0.2-0.2-0.2c-0.1,0-0.2-0.1-0.3-0.1s-0.3-0.1-0.4-0.1v-0.4l2.9-0.2l0.1,0.1v4.7c0,0.1,0,0.3,0.1,0.3s0.1,0.2,0.3,0.2
		c0.1,0,0.2,0.1,0.3,0.1s0.2,0,0.3,0.1V93.4z M154.6,84.9c0,0.2,0,0.3-0.1,0.4s-0.2,0.2-0.4,0.3c-0.2,0.1-0.5,0.3-0.9,0.5
		s-0.9,0.5-1.4,0.8l-0.2-0.2c0.3-0.5,0.6-0.8,0.8-1.1s0.3-0.5,0.5-0.7c0.2-0.2,0.3-0.4,0.5-0.5s0.3-0.1,0.6-0.1
		c0.2,0,0.4,0.1,0.5,0.2S154.6,84.7,154.6,84.9z"/>
	<path d="M162.1,93.3c-0.2,0.1-0.4,0.1-0.6,0.2c-0.2,0.1-0.5,0.1-0.7,0.1c-0.5,0-0.8-0.1-1.1-0.2c-0.2-0.1-0.4-0.3-0.5-0.6h0
		c-0.1,0.1-0.3,0.2-0.4,0.3c-0.1,0.1-0.3,0.2-0.4,0.2c-0.2,0.1-0.4,0.2-0.5,0.2s-0.4,0.1-0.7,0.1c-0.5,0-0.8-0.1-1.2-0.4
		c-0.3-0.3-0.5-0.6-0.5-1.1c0-0.3,0-0.5,0.1-0.6c0.1-0.2,0.2-0.3,0.3-0.5c0.1-0.1,0.3-0.2,0.4-0.3c0.2-0.1,0.3-0.2,0.5-0.2
		c0.4-0.1,0.8-0.3,1.3-0.4c0.5-0.1,0.9-0.3,1.1-0.4v-0.6c0-0.1,0-0.2,0-0.4s0-0.3-0.1-0.4c-0.1-0.1-0.1-0.2-0.3-0.3
		s-0.3-0.1-0.5-0.1c-0.2,0-0.3,0-0.4,0.1s-0.2,0.1-0.3,0.1c0,0.1,0,0.2,0.1,0.4s0.1,0.3,0.1,0.5c0,0.1,0,0.1-0.1,0.2
		s-0.1,0.2-0.2,0.2c-0.1,0.1-0.2,0.1-0.3,0.2c-0.1,0-0.3,0.1-0.5,0.1c-0.3,0-0.6-0.1-0.7-0.2c-0.2-0.2-0.3-0.4-0.3-0.6
		c0-0.2,0.1-0.4,0.3-0.6s0.4-0.3,0.6-0.4c0.2-0.1,0.5-0.2,0.8-0.3s0.6-0.1,0.9-0.1c0.4,0,0.7,0,1,0.1s0.6,0.1,0.9,0.3
		c0.2,0.1,0.4,0.3,0.6,0.6s0.2,0.6,0.2,1c0,0.4,0,1,0,1.6s0,1,0,1.2c0,0.2,0,0.3,0.1,0.4s0.1,0.2,0.2,0.2c0.1,0,0.2,0,0.3,0.1
		s0.3,0,0.4,0V93.3z M159.2,90.3c-0.2,0.1-0.4,0.2-0.7,0.3c-0.2,0.1-0.4,0.2-0.5,0.3c-0.1,0.1-0.3,0.2-0.3,0.4
		c-0.1,0.2-0.1,0.4-0.1,0.6c0,0.3,0.1,0.5,0.2,0.7c0.1,0.1,0.3,0.2,0.5,0.2c0.2,0,0.4,0,0.5-0.1c0.1-0.1,0.3-0.2,0.4-0.3L159.2,90.3
		z"/>
	<path d="M173.2,93.3l-2.9,0.2l-0.1-0.1v-0.5l0,0c-0.2,0.2-0.4,0.4-0.8,0.5c-0.3,0.2-0.7,0.2-1,0.2c-0.8,0-1.4-0.3-1.9-0.9
		c-0.5-0.6-0.8-1.3-0.8-2.3c0-0.8,0.3-1.5,0.9-2.1s1.3-0.9,2.1-0.9c0.3,0,0.6,0,0.9,0.1s0.5,0.2,0.7,0.3v-1.9c0-0.1,0-0.3-0.1-0.4
		s-0.1-0.2-0.2-0.3c-0.1-0.1-0.3-0.1-0.5-0.2s-0.4-0.1-0.5-0.1v-0.4l3.2-0.2l0.1,0.1v7.7c0,0.1,0,0.3,0.1,0.4c0,0.1,0.1,0.2,0.2,0.2
		c0.1,0,0.2,0.1,0.4,0.1s0.3,0,0.4,0V93.3z M170.2,92.3V89c0-0.1-0.1-0.2-0.1-0.3c0-0.1-0.1-0.2-0.2-0.3c-0.1-0.1-0.2-0.2-0.3-0.2
		c-0.1-0.1-0.3-0.1-0.4-0.1c-0.4,0-0.7,0.2-1,0.7c-0.2,0.4-0.4,1.1-0.4,1.9c0,0.3,0,0.6,0.1,0.9s0.1,0.5,0.2,0.7
		c0.1,0.2,0.3,0.4,0.4,0.5c0.2,0.1,0.4,0.2,0.6,0.2c0.2,0,0.4,0,0.6-0.1S170.1,92.4,170.2,92.3z"/>
	<path d="M179.9,92c-0.1,0.2-0.3,0.4-0.5,0.6s-0.4,0.4-0.7,0.5c-0.3,0.1-0.5,0.3-0.8,0.3s-0.6,0.1-0.9,0.1c-0.6,0-1.1-0.1-1.5-0.2
		s-0.8-0.4-1-0.7s-0.5-0.6-0.6-1s-0.2-0.8-0.2-1.2c0-0.4,0.1-0.8,0.2-1.1s0.4-0.7,0.6-1c0.3-0.3,0.6-0.5,1-0.7s0.9-0.3,1.4-0.3
		c0.5,0,1,0.1,1.3,0.2s0.6,0.3,0.9,0.6c0.2,0.2,0.4,0.5,0.5,0.8s0.2,0.6,0.2,1v0.4h-4c0,0.8,0.2,1.4,0.5,1.8s0.8,0.6,1.5,0.6
		c0.4,0,0.7-0.1,1-0.3s0.5-0.5,0.8-0.8L179.9,92z M177.7,89.8c0-0.2,0-0.5,0-0.7s-0.1-0.4-0.1-0.6c-0.1-0.2-0.2-0.3-0.3-0.4
		s-0.3-0.1-0.4-0.1c-0.3,0-0.5,0.2-0.7,0.5s-0.3,0.8-0.3,1.4L177.7,89.8z"/>
	<path d="M184,93.4h-3.7V93c0.1,0,0.2,0,0.3,0s0.2,0,0.3-0.1c0.1,0,0.2-0.1,0.3-0.2c0-0.1,0.1-0.2,0.1-0.3v-6.5c0-0.1,0-0.3-0.1-0.4
		s-0.1-0.2-0.2-0.3c-0.1-0.1-0.2-0.1-0.4-0.1s-0.3-0.1-0.4-0.1v-0.4l3-0.2l0.1,0.1v7.8c0,0.1,0,0.3,0.1,0.4c0.1,0.1,0.1,0.2,0.2,0.2
		c0.1,0,0.2,0.1,0.2,0.1c0.1,0,0.2,0,0.3,0.1V93.4z"/>
	<path d="M191,93.6c-0.5,0-1-0.1-1.4-0.2s-0.8-0.4-1-0.6c-0.3-0.3-0.5-0.6-0.6-1s-0.2-0.8-0.2-1.2c0-0.4,0.1-0.8,0.2-1.2
		s0.4-0.7,0.7-1c0.3-0.3,0.6-0.5,1.1-0.7s0.9-0.3,1.4-0.3c0.7,0,1.3,0.1,1.7,0.4s0.6,0.6,0.6,1.1c0,0.3-0.1,0.5-0.2,0.7
		s-0.4,0.3-0.8,0.3c-0.3,0-0.5-0.1-0.7-0.2s-0.3-0.3-0.3-0.6c0-0.2,0-0.4,0.1-0.6s0.1-0.3,0.1-0.4c0-0.1-0.1-0.1-0.2-0.2
		s-0.2-0.1-0.3-0.1c-0.2,0-0.3,0-0.5,0.1s-0.3,0.2-0.4,0.4c-0.1,0.2-0.2,0.5-0.3,0.8s-0.1,0.7-0.1,1.2c0,0.7,0.2,1.3,0.5,1.7
		s0.7,0.6,1.2,0.6c0.4,0,0.8-0.1,1-0.3s0.5-0.5,0.7-0.8l0.4,0.3c-0.1,0.2-0.3,0.5-0.4,0.7s-0.4,0.4-0.6,0.5
		c-0.2,0.2-0.5,0.3-0.8,0.4S191.3,93.6,191,93.6z"/>
	<path d="M200.7,93.3c-0.2,0.1-0.4,0.1-0.6,0.2c-0.2,0.1-0.5,0.1-0.7,0.1c-0.5,0-0.8-0.1-1.1-0.2s-0.4-0.3-0.5-0.6h0
		c-0.1,0.1-0.3,0.2-0.4,0.3c-0.1,0.1-0.3,0.2-0.4,0.2c-0.2,0.1-0.4,0.2-0.5,0.2s-0.4,0.1-0.7,0.1c-0.5,0-0.8-0.1-1.2-0.4
		c-0.3-0.3-0.5-0.6-0.5-1.1c0-0.3,0-0.5,0.1-0.6s0.2-0.3,0.3-0.5c0.1-0.1,0.3-0.2,0.4-0.3c0.2-0.1,0.3-0.2,0.5-0.2
		c0.4-0.1,0.8-0.3,1.3-0.4c0.5-0.1,0.9-0.3,1.1-0.4v-0.6c0-0.1,0-0.2,0-0.4s0-0.3-0.1-0.4c-0.1-0.1-0.1-0.2-0.3-0.3
		s-0.3-0.1-0.5-0.1c-0.2,0-0.3,0-0.4,0.1c-0.1,0-0.2,0.1-0.3,0.1c0,0.1,0,0.2,0.1,0.4s0.1,0.3,0.1,0.5c0,0.1,0,0.1-0.1,0.2
		s-0.1,0.2-0.2,0.2c-0.1,0.1-0.2,0.1-0.3,0.2c-0.1,0-0.3,0.1-0.5,0.1c-0.3,0-0.6-0.1-0.7-0.2c-0.2-0.2-0.3-0.4-0.3-0.6
		c0-0.2,0.1-0.4,0.3-0.6s0.4-0.3,0.6-0.4c0.2-0.1,0.5-0.2,0.8-0.3s0.6-0.1,0.9-0.1c0.4,0,0.7,0,1,0.1s0.6,0.1,0.9,0.3
		c0.2,0.1,0.4,0.3,0.6,0.6s0.2,0.6,0.2,1c0,0.4,0,1,0,1.6s0,1,0,1.2c0,0.2,0,0.3,0.1,0.4s0.1,0.2,0.2,0.2c0.1,0,0.2,0,0.3,0.1
		s0.3,0,0.4,0V93.3z M197.8,90.3c-0.2,0.1-0.4,0.2-0.7,0.3c-0.2,0.1-0.4,0.2-0.5,0.3c-0.1,0.1-0.3,0.2-0.3,0.4
		c-0.1,0.2-0.1,0.4-0.1,0.6c0,0.3,0.1,0.5,0.2,0.7c0.1,0.1,0.3,0.2,0.5,0.2c0.2,0,0.4,0,0.5-0.1c0.1-0.1,0.3-0.2,0.4-0.3L197.8,90.3
		z"/>
	<path d="M212.8,93.4h-3.5V93c0.1,0,0.2,0,0.3,0c0.1,0,0.2,0,0.2-0.1c0.1,0,0.1-0.1,0.2-0.2s0-0.2,0-0.4v-2.7c0-0.4-0.1-0.7-0.2-0.9
		c-0.1-0.2-0.3-0.3-0.6-0.3c-0.2,0-0.3,0-0.5,0.1c-0.1,0.1-0.3,0.1-0.4,0.2c-0.1,0.1-0.2,0.2-0.3,0.2c-0.1,0.1-0.1,0.2-0.2,0.2v3.1
		c0,0.1,0,0.3,0,0.3c0,0.1,0.1,0.2,0.2,0.2c0.1,0,0.1,0.1,0.2,0.1s0.2,0,0.3,0.1v0.4h-3.3V93c0.1,0,0.2,0,0.3,0s0.2,0,0.2-0.1
		c0.1,0,0.1-0.1,0.2-0.2c0-0.1,0-0.2,0-0.4v-2.7c0-0.4-0.1-0.7-0.2-0.9c-0.1-0.2-0.3-0.3-0.6-0.3c-0.2,0-0.3,0-0.5,0.1
		c-0.1,0.1-0.3,0.1-0.4,0.2c-0.1,0.1-0.2,0.2-0.3,0.2c-0.1,0.1-0.1,0.2-0.2,0.2v3.1c0,0.1,0,0.2,0.1,0.3s0.1,0.2,0.2,0.2
		c0.1,0,0.1,0.1,0.2,0.1s0.2,0,0.3,0.1v0.4h-3.5V93c0.1,0,0.2,0,0.3,0s0.2,0,0.3-0.1c0.1,0,0.2-0.1,0.3-0.2s0.1-0.2,0.1-0.3V89
		c0-0.1,0-0.2-0.1-0.4s-0.1-0.2-0.2-0.3c-0.1,0-0.2-0.1-0.3-0.1s-0.2-0.1-0.4-0.1v-0.4l2.8-0.2l0.1,0.1v0.8h0
		c0.1-0.1,0.2-0.2,0.4-0.3s0.3-0.2,0.4-0.3c0.1-0.1,0.3-0.2,0.6-0.2s0.5-0.1,0.7-0.1c0.4,0,0.8,0.1,1.1,0.3s0.5,0.5,0.6,0.8h0.1
		c0.1-0.1,0.3-0.2,0.4-0.4s0.3-0.3,0.5-0.3c0.2-0.1,0.3-0.2,0.6-0.2s0.5-0.1,0.8-0.1c0.6,0,1,0.2,1.4,0.5s0.5,0.8,0.5,1.5v2.8
		c0,0.1,0,0.3,0.1,0.3s0.1,0.2,0.2,0.2c0.1,0,0.1,0.1,0.2,0.1s0.2,0,0.3,0.1V93.4z"/>
	<path d="M220.5,90.6c0,0.8-0.3,1.5-0.8,2.1s-1.2,0.9-2.1,0.9c-0.4,0-0.7,0-0.9-0.1s-0.4-0.2-0.6-0.3h0v1.6c0,0.1,0,0.3,0.1,0.4
		s0.1,0.2,0.3,0.2c0.1,0,0.3,0.1,0.4,0.1s0.4,0.1,0.5,0.1V96h-4.2v-0.4c0.1,0,0.2,0,0.4,0s0.3,0,0.3-0.1c0.1,0,0.2-0.1,0.3-0.2
		s0.1-0.2,0.1-0.4v-6c0-0.1,0-0.2-0.1-0.3s-0.1-0.2-0.2-0.3c-0.1-0.1-0.2-0.1-0.3-0.1s-0.3-0.1-0.4-0.1v-0.4l2.9-0.2l0.1,0.1v0.7
		l0,0c0.3-0.3,0.5-0.5,0.9-0.6c0.3-0.1,0.6-0.2,0.9-0.2c0.8,0,1.4,0.3,1.9,0.9S220.5,89.7,220.5,90.6z M218.4,90.6
		c0-0.3,0-0.6-0.1-0.8c0-0.3-0.1-0.5-0.2-0.7c-0.1-0.2-0.2-0.4-0.4-0.5c-0.2-0.1-0.4-0.2-0.6-0.2c-0.3,0-0.5,0-0.6,0.1
		s-0.3,0.2-0.4,0.3v3.3c0,0.1,0.1,0.2,0.1,0.3s0.1,0.2,0.2,0.3c0.1,0.1,0.2,0.2,0.3,0.2c0.1,0.1,0.3,0.1,0.4,0.1
		c0.4,0,0.7-0.2,0.9-0.6C218.3,92,218.4,91.4,218.4,90.6z"/>
	<path d="M227.2,88.3c0.3,0.3,0.5,0.6,0.7,1s0.2,0.8,0.2,1.2c0,0.4-0.1,0.8-0.2,1.2s-0.4,0.7-0.7,1c-0.3,0.3-0.7,0.5-1.1,0.7
		s-0.9,0.2-1.5,0.2c-0.5,0-0.9-0.1-1.3-0.2s-0.8-0.3-1.1-0.6c-0.3-0.3-0.5-0.6-0.7-1s-0.3-0.8-0.3-1.3c0-0.5,0.1-0.9,0.2-1.3
		s0.4-0.7,0.7-1c0.3-0.3,0.6-0.5,1.1-0.6s0.9-0.2,1.4-0.2c0.5,0,1,0.1,1.4,0.2S226.9,88,227.2,88.3z M225.7,92.4
		c0.1-0.2,0.1-0.5,0.2-0.8s0.1-0.7,0.1-1.1c0-0.3,0-0.6-0.1-0.9s-0.1-0.6-0.2-0.8c-0.1-0.2-0.2-0.4-0.4-0.6s-0.4-0.2-0.6-0.2
		c-0.3,0-0.5,0.1-0.7,0.2s-0.3,0.3-0.4,0.6c-0.1,0.2-0.1,0.5-0.2,0.8s0,0.6,0,0.9c0,0.4,0,0.8,0,1.1s0.1,0.6,0.2,0.8
		c0.1,0.2,0.2,0.4,0.4,0.6s0.4,0.2,0.6,0.2c0.2,0,0.4-0.1,0.6-0.2S225.6,92.6,225.7,92.4z"/>
	<path d="M241.6,76.5H238v-1.3h3.6V76.5z"/>
	<path d="M35.8,72.8h-0.4c-0.1-0.3-0.3-0.6-0.6-1c-0.3-0.3-0.6-0.5-0.8-0.6c-0.1,0-0.3,0-0.5,0s-0.4,0-0.5,0h-1.2v3.2h0.9
		c0.2,0,0.4,0,0.6-0.1s0.3-0.1,0.5-0.3c0.1-0.1,0.2-0.2,0.3-0.5s0.2-0.4,0.2-0.6h0.4v3.5h-0.4c0-0.2-0.1-0.4-0.2-0.6
		s-0.2-0.4-0.3-0.5c-0.1-0.1-0.3-0.2-0.5-0.3S32.8,75,32.6,75h-0.9v2.4c0,0.2,0,0.4,0.1,0.6s0.1,0.3,0.2,0.3
		c0.1,0.1,0.2,0.1,0.4,0.1s0.4,0,0.7,0c0.1,0,0.3,0,0.5,0s0.4,0,0.5,0c0.2,0,0.3,0,0.5-0.1s0.2-0.1,0.3-0.2c0.2-0.2,0.4-0.5,0.6-0.9
		s0.4-0.7,0.5-0.9h0.4L36.2,79h-7.8v-0.5c0.1,0,0.3,0,0.4,0s0.3-0.1,0.4-0.1c0.1-0.1,0.2-0.1,0.3-0.2s0.1-0.2,0.1-0.4V72
		c0-0.1,0-0.3-0.1-0.3s-0.1-0.2-0.3-0.2c-0.1,0-0.2-0.1-0.4-0.1s-0.3-0.1-0.4-0.1v-0.5h7.4V72.8z"/>
	<path d="M39.7,79.2c-0.4,0-0.7-0.1-1.1-0.2s-0.6-0.2-0.8-0.4l-0.2,0.4h-0.5l-0.1-2.2h0.4c0.1,0.2,0.2,0.4,0.3,0.6s0.3,0.4,0.5,0.6
		c0.2,0.2,0.4,0.3,0.6,0.4s0.5,0.2,0.8,0.2c0.4,0,0.6-0.1,0.8-0.2s0.3-0.4,0.3-0.6c0-0.2,0-0.3-0.1-0.4s-0.2-0.2-0.3-0.3
		c-0.2-0.1-0.3-0.1-0.5-0.2s-0.4-0.1-0.7-0.2s-0.5-0.2-0.7-0.2s-0.4-0.2-0.6-0.4c-0.2-0.2-0.3-0.3-0.4-0.6s-0.2-0.5-0.2-0.8
		c0-0.6,0.2-1,0.7-1.3s1.1-0.5,1.8-0.5c0.4,0,0.7,0,1,0.1s0.5,0.2,0.8,0.2l0.1-0.3h0.4l0.1,2h-0.4c-0.1-0.4-0.4-0.8-0.7-1.1
		s-0.7-0.4-1.1-0.4c-0.3,0-0.5,0.1-0.7,0.2S39,74.1,39,74.3c0,0.3,0.1,0.5,0.4,0.6c0.3,0.1,0.6,0.3,1.1,0.4c0.7,0.2,1.2,0.4,1.5,0.7
		c0.3,0.3,0.5,0.7,0.5,1.2c0,0.6-0.3,1.1-0.8,1.5S40.5,79.2,39.7,79.2z"/>
	<path d="M46.5,79.2c-0.5,0-1-0.1-1.4-0.2s-0.8-0.4-1-0.6c-0.3-0.3-0.5-0.6-0.6-1s-0.2-0.8-0.2-1.2c0-0.4,0.1-0.8,0.2-1.2
		s0.4-0.7,0.7-1c0.3-0.3,0.6-0.5,1.1-0.7s0.9-0.3,1.4-0.3c0.7,0,1.3,0.1,1.7,0.4s0.6,0.6,0.6,1.1c0,0.3-0.1,0.5-0.2,0.7
		s-0.4,0.3-0.8,0.3c-0.3,0-0.5-0.1-0.7-0.2s-0.3-0.3-0.3-0.6c0-0.2,0-0.4,0.1-0.6s0.1-0.3,0.1-0.4c0-0.1-0.1-0.1-0.2-0.2
		s-0.2-0.1-0.3-0.1c-0.2,0-0.3,0-0.5,0.1s-0.3,0.2-0.4,0.4c-0.1,0.2-0.2,0.5-0.3,0.8s-0.1,0.7-0.1,1.2c0,0.7,0.2,1.3,0.5,1.7
		s0.7,0.6,1.2,0.6c0.4,0,0.8-0.1,1-0.3s0.5-0.5,0.7-0.8l0.4,0.3c-0.1,0.2-0.3,0.5-0.4,0.7s-0.4,0.4-0.6,0.5
		c-0.2,0.2-0.5,0.3-0.8,0.4S46.9,79.2,46.5,79.2z"/>
	<path d="M55.8,77.6c-0.1,0.2-0.3,0.4-0.5,0.6s-0.4,0.4-0.7,0.5c-0.3,0.1-0.5,0.3-0.8,0.3s-0.6,0.1-0.9,0.1c-0.6,0-1.1-0.1-1.5-0.2
		s-0.8-0.4-1-0.7s-0.5-0.6-0.6-1s-0.2-0.8-0.2-1.2c0-0.4,0.1-0.8,0.2-1.1s0.4-0.7,0.6-1c0.3-0.3,0.6-0.5,1-0.7s0.9-0.3,1.4-0.3
		c0.5,0,1,0.1,1.3,0.2s0.6,0.3,0.9,0.6c0.2,0.2,0.4,0.5,0.5,0.8s0.2,0.6,0.2,1v0.4h-4c0,0.8,0.2,1.4,0.5,1.8s0.8,0.6,1.5,0.6
		c0.4,0,0.7-0.1,1-0.3s0.5-0.5,0.8-0.8L55.8,77.6z M53.6,75.4c0-0.2,0-0.5,0-0.7s-0.1-0.4-0.1-0.6c-0.1-0.2-0.2-0.3-0.3-0.4
		s-0.3-0.1-0.4-0.1c-0.3,0-0.5,0.2-0.7,0.5s-0.3,0.8-0.3,1.4L53.6,75.4z"/>
	<path d="M64.1,79h-3.5v-0.4c0.1,0,0.2,0,0.3,0s0.2,0,0.2-0.1c0.1,0,0.1-0.1,0.2-0.2s0.1-0.2,0.1-0.4v-2.7c0-0.4-0.1-0.7-0.2-0.9
		C61,74.1,60.8,74,60.5,74c-0.2,0-0.3,0-0.4,0.1c-0.1,0-0.3,0.1-0.4,0.2c-0.1,0.1-0.2,0.2-0.3,0.2c-0.1,0.1-0.1,0.2-0.2,0.2v3.1
		c0,0.1,0,0.3,0.1,0.3s0.1,0.2,0.2,0.2c0.1,0,0.1,0.1,0.2,0.1s0.2,0,0.3,0.1V79h-3.6v-0.4c0.1,0,0.2,0,0.3,0s0.2,0,0.3-0.1
		c0.1,0,0.2-0.1,0.3-0.2s0.1-0.2,0.1-0.4v-3.4c0-0.1,0-0.2-0.1-0.4S57,74,56.9,73.9c-0.1,0-0.2-0.1-0.3-0.1s-0.2-0.1-0.4-0.1v-0.4
		l2.8-0.2l0.1,0.1v0.8h0c0.1-0.1,0.2-0.2,0.4-0.4s0.3-0.2,0.4-0.3c0.1-0.1,0.3-0.2,0.6-0.2s0.5-0.1,0.8-0.1c0.6,0,1.1,0.2,1.4,0.5
		s0.5,0.8,0.5,1.4v2.9c0,0.1,0,0.3,0.1,0.3s0.1,0.2,0.2,0.2c0.1,0,0.1,0.1,0.2,0.1s0.2,0,0.3,0.1V79z"/>
	<path d="M71.4,78.9c-0.2,0.1-0.4,0.1-0.6,0.2c-0.2,0.1-0.5,0.1-0.7,0.1c-0.5,0-0.8-0.1-1.1-0.2s-0.4-0.3-0.5-0.6h0
		c-0.1,0.1-0.3,0.2-0.4,0.3c-0.1,0.1-0.3,0.2-0.4,0.2c-0.2,0.1-0.4,0.2-0.5,0.2c-0.2,0-0.4,0.1-0.7,0.1c-0.5,0-0.8-0.1-1.2-0.4
		c-0.3-0.3-0.5-0.6-0.5-1.1c0-0.3,0-0.5,0.1-0.6c0.1-0.2,0.2-0.3,0.3-0.5c0.1-0.1,0.3-0.2,0.4-0.3c0.2-0.1,0.3-0.2,0.5-0.2
		c0.4-0.1,0.8-0.3,1.3-0.4c0.5-0.1,0.9-0.3,1.1-0.4v-0.6c0-0.1,0-0.2,0-0.4s0-0.3-0.1-0.4c-0.1-0.1-0.1-0.2-0.3-0.3
		s-0.3-0.1-0.5-0.1c-0.2,0-0.3,0-0.4,0.1s-0.2,0.1-0.3,0.1c0,0.1,0,0.2,0.1,0.4c0.1,0.2,0.1,0.3,0.1,0.5c0,0.1,0,0.1-0.1,0.2
		c0,0.1-0.1,0.2-0.2,0.2c-0.1,0.1-0.2,0.1-0.3,0.2s-0.3,0.1-0.5,0.1c-0.3,0-0.6-0.1-0.7-0.2c-0.2-0.2-0.3-0.4-0.3-0.6
		c0-0.2,0.1-0.4,0.3-0.6s0.4-0.3,0.6-0.4c0.2-0.1,0.5-0.2,0.8-0.3s0.6-0.1,0.9-0.1c0.4,0,0.7,0,1,0.1s0.6,0.1,0.9,0.3
		c0.2,0.1,0.4,0.3,0.6,0.6s0.2,0.6,0.2,1c0,0.4,0,1,0,1.6s0,1,0,1.2c0,0.2,0,0.3,0.1,0.4s0.1,0.2,0.2,0.2c0.1,0,0.2,0,0.3,0.1
		s0.3,0,0.4,0V78.9z M68.5,75.9c-0.2,0.1-0.4,0.2-0.7,0.3c-0.2,0.1-0.4,0.2-0.5,0.3c-0.1,0.1-0.3,0.2-0.3,0.4
		c-0.1,0.2-0.1,0.4-0.1,0.6c0,0.3,0.1,0.5,0.2,0.7c0.1,0.1,0.3,0.2,0.5,0.2c0.2,0,0.4,0,0.5-0.1s0.3-0.2,0.4-0.3L68.5,75.9z"/>
	<path d="M81.5,79h-6.4V78c0.3-0.3,0.6-0.5,0.9-0.8s0.7-0.4,1-0.6c0.4-0.2,0.7-0.4,0.9-0.5s0.4-0.3,0.6-0.5c0.1-0.2,0.2-0.3,0.3-0.5
		s0.1-0.4,0.1-0.6c0-0.5-0.1-0.9-0.4-1.1c-0.2-0.2-0.5-0.3-0.9-0.3c-0.1,0-0.2,0-0.3,0s-0.2,0-0.3,0.1c0.1,0.2,0.1,0.4,0.2,0.5
		s0.1,0.4,0.1,0.6c0,0.3-0.1,0.5-0.3,0.7s-0.5,0.2-0.8,0.2c-0.3,0-0.5-0.1-0.7-0.3s-0.3-0.4-0.3-0.7c0-0.5,0.3-0.9,0.8-1.2
		s1.2-0.5,2-0.5c0.9,0,1.7,0.2,2.2,0.5s0.9,0.8,0.9,1.5c0,0.4-0.1,0.7-0.2,0.9s-0.4,0.4-0.7,0.6c-0.3,0.2-0.6,0.3-0.9,0.4
		s-0.7,0.2-1,0.3c-0.4,0.1-0.7,0.2-1,0.3s-0.5,0.2-0.8,0.4v0.1h4.9V79z"/>
	<path d="M85.4,74.4c0,0.3-0.1,0.6-0.3,0.8s-0.5,0.3-0.8,0.3c-0.3,0-0.6-0.1-0.8-0.3s-0.3-0.5-0.3-0.8s0.1-0.6,0.3-0.8
		s0.5-0.3,0.8-0.3c0.3,0,0.6,0.1,0.8,0.3S85.4,74,85.4,74.4z M85.4,78.1c0,0.3-0.1,0.6-0.3,0.8s-0.5,0.3-0.8,0.3
		c-0.3,0-0.6-0.1-0.8-0.3s-0.3-0.5-0.3-0.8s0.1-0.6,0.3-0.8s0.5-0.3,0.8-0.3c0.3,0,0.6,0.1,0.8,0.3S85.4,77.8,85.4,78.1z"/>
	<path d="M97.3,72.8h-0.4c-0.1-0.3-0.3-0.6-0.6-1c-0.3-0.3-0.6-0.5-0.8-0.6c-0.1,0-0.3,0-0.5,0s-0.4,0-0.5,0h-1.2v3.2h0.9
		c0.2,0,0.4,0,0.6-0.1s0.3-0.1,0.5-0.3c0.1-0.1,0.2-0.2,0.3-0.5s0.2-0.4,0.2-0.6H96v3.5h-0.4c0-0.2-0.1-0.4-0.2-0.6
		s-0.2-0.4-0.3-0.5c-0.1-0.1-0.3-0.2-0.5-0.3S94.3,75,94.1,75h-0.9v2.4c0,0.2,0,0.4,0.1,0.6s0.1,0.3,0.2,0.3
		c0.1,0.1,0.2,0.1,0.4,0.1s0.4,0,0.7,0c0.1,0,0.3,0,0.5,0s0.4,0,0.5,0c0.2,0,0.3,0,0.5-0.1s0.2-0.1,0.3-0.2c0.2-0.2,0.4-0.5,0.6-0.9
		s0.4-0.7,0.5-0.9h0.4L97.7,79h-7.8v-0.5c0.1,0,0.3,0,0.4,0s0.3-0.1,0.4-0.1c0.1-0.1,0.2-0.1,0.3-0.2s0.1-0.2,0.1-0.4V72
		c0-0.1,0-0.3-0.1-0.3s-0.1-0.2-0.3-0.2c-0.1,0-0.2-0.1-0.4-0.1s-0.3-0.1-0.4-0.1v-0.5h7.4V72.8z"/>
	<path d="M102.1,79h-3.7v-0.4c0.1,0,0.2,0,0.3,0s0.2,0,0.3-0.1c0.1,0,0.2-0.1,0.3-0.2s0.1-0.2,0.1-0.3v-6.5c0-0.1,0-0.3-0.1-0.4
		s-0.1-0.2-0.2-0.3c-0.1-0.1-0.2-0.1-0.4-0.1s-0.3-0.1-0.4-0.1v-0.4l3-0.2l0.1,0.1v7.8c0,0.1,0,0.3,0.1,0.4s0.1,0.2,0.2,0.2
		c0.1,0,0.2,0.1,0.2,0.1c0.1,0,0.2,0,0.3,0.1V79z"/>
	<path d="M110,78.8c-0.2,0.1-0.5,0.2-0.8,0.3s-0.6,0.1-1,0.1c-0.6,0-1.1-0.1-1.4-0.4c-0.3-0.3-0.4-0.7-0.4-1.3v-3.6h-1.1v-0.6h1.1
		v-1.8h1.9v1.8h1.6v0.6h-1.6v3.2c0,0.5,0.1,0.8,0.2,1c0.1,0.2,0.4,0.3,0.7,0.3c0.1,0,0.3,0,0.4,0c0.2,0,0.3,0,0.4-0.1V78.8z"/>
	<path d="M117.2,78.9c-0.2,0.1-0.4,0.1-0.6,0.2c-0.2,0.1-0.5,0.1-0.7,0.1c-0.5,0-0.8-0.1-1.1-0.2c-0.2-0.1-0.4-0.3-0.5-0.6h0
		c-0.1,0.1-0.3,0.2-0.4,0.3c-0.1,0.1-0.3,0.2-0.4,0.2c-0.2,0.1-0.4,0.2-0.5,0.2s-0.4,0.1-0.7,0.1c-0.5,0-0.8-0.1-1.2-0.4
		c-0.3-0.3-0.5-0.6-0.5-1.1c0-0.3,0-0.5,0.1-0.6c0.1-0.2,0.2-0.3,0.3-0.5c0.1-0.1,0.3-0.2,0.4-0.3c0.2-0.1,0.3-0.2,0.5-0.2
		c0.4-0.1,0.8-0.3,1.3-0.4c0.5-0.1,0.9-0.3,1.1-0.4v-0.6c0-0.1,0-0.2,0-0.4s0-0.3-0.1-0.4c-0.1-0.1-0.1-0.2-0.3-0.3
		s-0.3-0.1-0.5-0.1c-0.2,0-0.3,0-0.4,0.1s-0.2,0.1-0.3,0.1c0,0.1,0,0.2,0.1,0.4s0.1,0.3,0.1,0.5c0,0.1,0,0.1-0.1,0.2
		s-0.1,0.2-0.2,0.2c-0.1,0.1-0.2,0.1-0.3,0.2c-0.1,0-0.3,0.1-0.5,0.1c-0.3,0-0.6-0.1-0.7-0.2c-0.2-0.2-0.3-0.4-0.3-0.6
		c0-0.2,0.1-0.4,0.3-0.6s0.4-0.3,0.6-0.4c0.2-0.1,0.5-0.2,0.8-0.3s0.6-0.1,0.9-0.1c0.4,0,0.7,0,1,0.1s0.6,0.1,0.9,0.3
		c0.2,0.1,0.4,0.3,0.6,0.6s0.2,0.6,0.2,1c0,0.4,0,1,0,1.6s0,1,0,1.2c0,0.2,0,0.3,0.1,0.4s0.1,0.2,0.2,0.2c0.1,0,0.2,0,0.3,0.1
		s0.3,0,0.4,0V78.9z M114.2,75.9c-0.2,0.1-0.4,0.2-0.7,0.3c-0.2,0.1-0.4,0.2-0.5,0.3c-0.1,0.1-0.3,0.2-0.3,0.4
		c-0.1,0.2-0.1,0.4-0.1,0.6c0,0.3,0.1,0.5,0.2,0.7c0.1,0.1,0.3,0.2,0.5,0.2c0.2,0,0.4,0,0.5-0.1c0.1-0.1,0.3-0.2,0.4-0.3L114.2,75.9
		z"/>
	<path d="M124.6,76.2c0,0.9-0.3,1.6-0.9,2.2s-1.3,0.9-2.2,0.9c-0.3,0-0.6,0-0.9-0.1S120.2,79,120,79c-0.2-0.1-0.3-0.1-0.4-0.2
		s-0.2-0.1-0.3-0.2l-0.8,0.8l-0.3-0.1c0-0.3,0-0.6,0-0.9s0-0.8,0-1.4v-5.5c0-0.1,0-0.3-0.1-0.4s-0.1-0.2-0.2-0.3
		c-0.1,0-0.2-0.1-0.3-0.1s-0.3-0.1-0.4-0.1v-0.4L120,70l0.1,0.1v3.8h0c0.3-0.3,0.6-0.5,0.9-0.6s0.6-0.2,0.9-0.2
		c0.8,0,1.5,0.3,1.9,0.8C124.4,74.5,124.6,75.2,124.6,76.2z M122.5,76.2c0-0.3,0-0.6-0.1-0.9s-0.1-0.5-0.2-0.7s-0.2-0.4-0.4-0.5
		s-0.4-0.2-0.6-0.2c-0.2,0-0.4,0-0.6,0.1c-0.2,0.1-0.3,0.2-0.4,0.3v3.4c0,0.1,0.1,0.2,0.1,0.3s0.1,0.2,0.2,0.3
		c0.1,0.1,0.2,0.2,0.3,0.2c0.1,0.1,0.3,0.1,0.4,0.1c0.4,0,0.7-0.2,0.9-0.7S122.5,77,122.5,76.2z"/>
	<path d="M128.9,79h-3.7v-0.4c0.1,0,0.2,0,0.3,0c0.1,0,0.2,0,0.3-0.1c0.1,0,0.2-0.1,0.3-0.2c0-0.1,0.1-0.2,0.1-0.3v-6.5
		c0-0.1,0-0.3-0.1-0.4s-0.1-0.2-0.2-0.3c-0.1-0.1-0.2-0.1-0.4-0.1s-0.3-0.1-0.4-0.1v-0.4l3-0.2l0.1,0.1v7.8c0,0.1,0,0.3,0.1,0.4
		c0.1,0.1,0.1,0.2,0.2,0.2c0.1,0,0.2,0.1,0.2,0.1s0.2,0,0.3,0.1V79z"/>
	<path d="M135.8,77.6c-0.1,0.2-0.3,0.4-0.5,0.6s-0.4,0.4-0.7,0.5c-0.3,0.1-0.5,0.3-0.8,0.3s-0.6,0.1-0.9,0.1c-0.6,0-1.1-0.1-1.5-0.2
		s-0.8-0.4-1-0.7s-0.5-0.6-0.6-1s-0.2-0.8-0.2-1.2c0-0.4,0.1-0.8,0.2-1.1s0.4-0.7,0.6-1c0.3-0.3,0.6-0.5,1-0.7s0.9-0.3,1.4-0.3
		c0.5,0,1,0.1,1.3,0.2s0.6,0.3,0.9,0.6c0.2,0.2,0.4,0.5,0.5,0.8s0.2,0.6,0.2,1v0.4h-4c0,0.8,0.2,1.4,0.5,1.8s0.8,0.6,1.5,0.6
		c0.4,0,0.7-0.1,1-0.3s0.5-0.5,0.8-0.8L135.8,77.6z M133.5,75.4c0-0.2,0-0.5,0-0.7s-0.1-0.4-0.1-0.6c-0.1-0.2-0.2-0.3-0.3-0.4
		s-0.3-0.1-0.4-0.1c-0.3,0-0.5,0.2-0.7,0.5s-0.3,0.8-0.3,1.4L133.5,75.4z"/>
	<path d="M142.2,74.3c0,0.3-0.1,0.6-0.3,0.8s-0.4,0.3-0.7,0.3c-0.3,0-0.5-0.1-0.7-0.2s-0.3-0.4-0.3-0.6c0-0.1,0-0.2,0-0.3
		s0-0.1,0.1-0.2c-0.2,0-0.4,0.1-0.6,0.2s-0.4,0.3-0.5,0.5v3.2c0,0.1,0,0.2,0.1,0.3s0.1,0.2,0.2,0.2c0.1,0,0.2,0.1,0.4,0.1
		s0.3,0,0.4,0V79h-3.9v-0.4c0.1,0,0.2,0,0.3,0s0.2,0,0.3-0.1c0.1,0,0.2-0.1,0.3-0.2s0.1-0.2,0.1-0.4v-3.4c0-0.1,0-0.3-0.1-0.4
		s-0.1-0.2-0.2-0.3c-0.1,0-0.2-0.1-0.3-0.1s-0.2-0.1-0.4-0.1v-0.4l2.8-0.2l0.1,0.1v0.8h0c0.3-0.3,0.6-0.6,0.9-0.7s0.6-0.3,0.9-0.3
		c0.4,0,0.7,0.1,0.9,0.3S142.2,73.9,142.2,74.3z"/>
	<path d="M148.6,73.9c0.3,0.3,0.5,0.6,0.7,1s0.2,0.8,0.2,1.2c0,0.4-0.1,0.8-0.2,1.2s-0.4,0.7-0.7,1c-0.3,0.3-0.7,0.5-1.1,0.7
		s-0.9,0.2-1.5,0.2c-0.5,0-0.9-0.1-1.3-0.2s-0.8-0.3-1.1-0.6c-0.3-0.3-0.5-0.6-0.7-1s-0.3-0.8-0.3-1.3c0-0.5,0.1-0.9,0.2-1.3
		s0.4-0.7,0.7-1c0.3-0.3,0.6-0.5,1.1-0.6s0.9-0.2,1.4-0.2c0.5,0,1,0.1,1.4,0.2S148.3,73.6,148.6,73.9z M147.1,78
		c0.1-0.2,0.1-0.5,0.2-0.8s0.1-0.7,0.1-1.1c0-0.3,0-0.6-0.1-0.9s-0.1-0.6-0.2-0.8c-0.1-0.2-0.2-0.4-0.4-0.6s-0.4-0.2-0.6-0.2
		c-0.3,0-0.5,0.1-0.7,0.2s-0.3,0.3-0.4,0.6c-0.1,0.2-0.1,0.5-0.2,0.8s0,0.6,0,0.9c0,0.4,0,0.8,0,1.1s0.1,0.6,0.2,0.8
		c0.1,0.2,0.2,0.4,0.4,0.6s0.4,0.2,0.6,0.2c0.2,0,0.4-0.1,0.6-0.2S147,78.2,147.1,78z"/>
	<path d="M160.8,78.9l-2.9,0.2l-0.1-0.1v-0.5l0,0c-0.2,0.2-0.4,0.4-0.8,0.5s-0.7,0.2-1,0.2c-0.8,0-1.4-0.3-1.9-0.9
		c-0.5-0.6-0.8-1.3-0.8-2.3c0-0.8,0.3-1.5,0.9-2.1s1.3-0.9,2.1-0.9c0.3,0,0.6,0,0.9,0.1c0.3,0.1,0.5,0.2,0.7,0.3v-1.9
		c0-0.1,0-0.3-0.1-0.4s-0.1-0.2-0.2-0.3c-0.1-0.1-0.3-0.1-0.5-0.2s-0.4-0.1-0.5-0.1v-0.4l3.2-0.2l0.1,0.1v7.7c0,0.1,0,0.3,0.1,0.4
		c0,0.1,0.1,0.2,0.2,0.2c0.1,0,0.2,0.1,0.4,0.1s0.3,0,0.4,0V78.9z M157.8,77.9v-3.3c0-0.1-0.1-0.2-0.1-0.3s-0.1-0.2-0.2-0.3
		c-0.1-0.1-0.2-0.2-0.3-0.2c-0.1-0.1-0.3-0.1-0.4-0.1c-0.4,0-0.7,0.2-1,0.7s-0.4,1.1-0.4,1.9c0,0.3,0,0.6,0.1,0.9s0.1,0.5,0.2,0.7
		c0.1,0.2,0.3,0.4,0.4,0.5s0.4,0.2,0.6,0.2c0.2,0,0.4,0,0.6-0.1S157.7,78,157.8,77.9z"/>
	<path d="M167.5,77.6c-0.1,0.2-0.3,0.4-0.5,0.6s-0.4,0.4-0.7,0.5c-0.3,0.1-0.5,0.3-0.8,0.3s-0.6,0.1-0.9,0.1c-0.6,0-1.1-0.1-1.5-0.2
		s-0.8-0.4-1-0.7s-0.5-0.6-0.6-1s-0.2-0.8-0.2-1.2c0-0.4,0.1-0.8,0.2-1.1s0.4-0.7,0.6-1c0.3-0.3,0.6-0.5,1-0.7s0.9-0.3,1.4-0.3
		c0.5,0,1,0.1,1.3,0.2s0.6,0.3,0.9,0.6c0.2,0.2,0.4,0.5,0.5,0.8s0.2,0.6,0.2,1v0.4h-4c0,0.8,0.2,1.4,0.5,1.8s0.8,0.6,1.5,0.6
		c0.4,0,0.7-0.1,1-0.3s0.5-0.5,0.8-0.8L167.5,77.6z M165.3,75.4c0-0.2,0-0.5,0-0.7s-0.1-0.4-0.1-0.6c-0.1-0.2-0.2-0.3-0.3-0.4
		s-0.3-0.1-0.4-0.1c-0.3,0-0.5,0.2-0.7,0.5s-0.3,0.8-0.3,1.4L165.3,75.4z"/>
	<path d="M180.2,71.2c-0.1,0-0.3,0-0.4,0.1s-0.2,0.1-0.4,0.2c-0.2,0.1-0.3,0.2-0.4,0.3s-0.2,0.3-0.3,0.5c-0.1,0.3-0.3,0.7-0.5,1.2
		s-0.5,1.1-0.8,1.8c-0.2,0.6-0.5,1.2-0.8,2s-0.6,1.4-0.8,2h-1.2c-0.5-1.3-1.1-2.7-1.7-4.1s-1-2.3-1.2-2.9c-0.1-0.2-0.2-0.3-0.3-0.4
		s-0.2-0.2-0.4-0.3c-0.1-0.1-0.2-0.1-0.4-0.2s-0.2-0.1-0.4-0.1v-0.5h4.5v0.4c-0.4,0.1-0.7,0.1-0.9,0.2s-0.2,0.1-0.2,0.2
		c0,0,0,0.1,0,0.1s0,0.1,0.1,0.2c0.1,0.3,0.4,0.9,0.7,1.7c0.3,0.8,0.8,2,1.5,3.6c0.4-1,0.7-1.8,1-2.5c0.3-0.7,0.5-1.3,0.7-1.8
		c0.1-0.2,0.2-0.5,0.2-0.7s0.1-0.4,0.1-0.5c0-0.1-0.1-0.2-0.3-0.3s-0.5-0.1-1-0.2v-0.5h3.4V71.2z"/>
	<path d="M187,78.9c-0.2,0.1-0.4,0.1-0.6,0.2c-0.2,0.1-0.5,0.1-0.7,0.1c-0.5,0-0.8-0.1-1.1-0.2s-0.4-0.3-0.5-0.6h0
		c-0.1,0.1-0.3,0.2-0.4,0.3c-0.1,0.1-0.3,0.2-0.4,0.2c-0.2,0.1-0.4,0.2-0.5,0.2s-0.4,0.1-0.7,0.1c-0.5,0-0.8-0.1-1.2-0.4
		c-0.3-0.3-0.5-0.6-0.5-1.1c0-0.3,0-0.5,0.1-0.6s0.2-0.3,0.3-0.5c0.1-0.1,0.3-0.2,0.4-0.3c0.2-0.1,0.3-0.2,0.5-0.2
		c0.4-0.1,0.8-0.3,1.3-0.4c0.5-0.1,0.9-0.3,1.1-0.4v-0.6c0-0.1,0-0.2,0-0.4s0-0.3-0.1-0.4c-0.1-0.1-0.1-0.2-0.3-0.3
		s-0.3-0.1-0.5-0.1c-0.2,0-0.3,0-0.4,0.1c-0.1,0-0.2,0.1-0.3,0.1c0,0.1,0,0.2,0.1,0.4s0.1,0.3,0.1,0.5c0,0.1,0,0.1-0.1,0.2
		s-0.1,0.2-0.2,0.2c-0.1,0.1-0.2,0.1-0.3,0.2c-0.1,0-0.3,0.1-0.5,0.1c-0.3,0-0.6-0.1-0.7-0.2c-0.2-0.2-0.3-0.4-0.3-0.6
		c0-0.2,0.1-0.4,0.3-0.6s0.4-0.3,0.6-0.4c0.2-0.1,0.5-0.2,0.8-0.3s0.6-0.1,0.9-0.1c0.4,0,0.7,0,1,0.1s0.6,0.1,0.9,0.3
		c0.2,0.1,0.4,0.3,0.6,0.6s0.2,0.6,0.2,1c0,0.4,0,1,0,1.6s0,1,0,1.2c0,0.2,0,0.3,0.1,0.4s0.1,0.2,0.2,0.2c0.1,0,0.2,0,0.3,0.1
		s0.3,0,0.4,0V78.9z M184.1,75.9c-0.2,0.1-0.4,0.2-0.7,0.3c-0.2,0.1-0.4,0.2-0.5,0.3c-0.1,0.1-0.3,0.2-0.3,0.4
		c-0.1,0.2-0.1,0.4-0.1,0.6c0,0.3,0.1,0.5,0.2,0.7c0.1,0.1,0.3,0.2,0.5,0.2c0.2,0,0.4,0,0.5-0.1c0.1-0.1,0.3-0.2,0.4-0.3L184.1,75.9
		z"/>
	<path d="M193.3,74.3c0,0.3-0.1,0.6-0.3,0.8s-0.4,0.3-0.7,0.3c-0.3,0-0.5-0.1-0.7-0.2s-0.3-0.4-0.3-0.6c0-0.1,0-0.2,0-0.3
		s0-0.1,0.1-0.2c-0.2,0-0.4,0.1-0.6,0.2s-0.4,0.3-0.5,0.5v3.2c0,0.1,0,0.2,0.1,0.3s0.1,0.2,0.2,0.2c0.1,0,0.2,0.1,0.4,0.1
		s0.3,0,0.4,0V79h-3.9v-0.4c0.1,0,0.2,0,0.3,0s0.2,0,0.3-0.1c0.1,0,0.2-0.1,0.3-0.2s0.1-0.2,0.1-0.4v-3.4c0-0.1,0-0.3-0.1-0.4
		S188,74,188,73.9c-0.1,0-0.2-0.1-0.3-0.1s-0.2-0.1-0.4-0.1v-0.4l2.8-0.2l0.1,0.1v0.8h0c0.3-0.3,0.6-0.6,0.9-0.7s0.6-0.3,0.9-0.3
		c0.4,0,0.7,0.1,0.9,0.3S193.3,73.9,193.3,74.3z"/>
	<path d="M200.2,73.9h-1.3c0.2,0.2,0.3,0.4,0.3,0.5s0.1,0.4,0.1,0.6c0,0.3-0.1,0.5-0.2,0.8s-0.3,0.4-0.6,0.6
		c-0.2,0.2-0.5,0.3-0.8,0.4s-0.7,0.1-1,0.1h-1c0,0-0.1,0.1-0.2,0.2c-0.1,0.1-0.1,0.2-0.1,0.2c0,0.2,0.1,0.3,0.2,0.4
		c0.1,0.1,0.4,0.1,0.7,0.1c0.4,0,0.7,0,1.1,0s0.6,0,0.8,0c0.2,0,0.5,0.1,0.7,0.1s0.4,0.2,0.6,0.3c0.2,0.1,0.3,0.3,0.4,0.5
		s0.2,0.5,0.2,0.7c0,0.3-0.1,0.6-0.2,0.8s-0.4,0.5-0.7,0.7c-0.3,0.2-0.7,0.4-1.1,0.5s-1,0.2-1.6,0.2c-1,0-1.8-0.1-2.3-0.4
		s-0.8-0.6-0.8-1.1c0-0.3,0.1-0.6,0.4-0.8c0.3-0.2,0.7-0.3,1.3-0.3V79c-0.4-0.1-0.6-0.3-0.8-0.5c-0.2-0.2-0.3-0.4-0.3-0.7
		c0-0.2,0-0.3,0.1-0.4s0.2-0.2,0.3-0.3c0.1-0.1,0.2-0.1,0.4-0.2c0.2-0.1,0.3-0.1,0.4-0.1v-0.1c-0.5-0.2-0.9-0.4-1.2-0.7
		s-0.4-0.6-0.4-1c0-0.6,0.3-1,0.8-1.4s1.2-0.5,2-0.5c0.3,0,0.5,0,0.8,0.1s0.4,0.1,0.6,0.1h2.3V73.9z M198.4,79.9
		c0-0.1,0-0.3-0.1-0.4s-0.2-0.2-0.5-0.3c-0.1,0-0.4,0-0.7,0c-0.3,0-0.8,0-1.3,0c-0.1,0.1-0.3,0.3-0.3,0.4c-0.1,0.2-0.1,0.4-0.1,0.6
		c0,0.1,0,0.2,0.1,0.3s0.1,0.2,0.3,0.3c0.1,0.1,0.3,0.2,0.5,0.3c0.2,0.1,0.4,0.1,0.8,0.1c0.5,0,0.9-0.1,1.2-0.3
		C198.3,80.7,198.4,80.4,198.4,79.9z M197.5,75c0-0.5-0.1-0.8-0.2-1.1c-0.1-0.3-0.4-0.4-0.7-0.4c-0.2,0-0.3,0-0.4,0.1
		c-0.1,0.1-0.2,0.2-0.3,0.3c-0.1,0.1-0.1,0.3-0.1,0.5s0,0.4,0,0.5c0,0.4,0.1,0.8,0.2,1c0.1,0.3,0.4,0.4,0.6,0.4
		c0.3,0,0.5-0.1,0.6-0.4C197.4,75.8,197.5,75.4,197.5,75z"/>
	<path d="M207.3,78.9c-0.2,0.1-0.4,0.1-0.6,0.2c-0.2,0.1-0.5,0.1-0.7,0.1c-0.5,0-0.8-0.1-1.1-0.2s-0.4-0.3-0.5-0.6h0
		c-0.1,0.1-0.3,0.2-0.4,0.3c-0.1,0.1-0.3,0.2-0.4,0.2c-0.2,0.1-0.4,0.2-0.5,0.2s-0.4,0.1-0.7,0.1c-0.5,0-0.8-0.1-1.2-0.4
		c-0.3-0.3-0.5-0.6-0.5-1.1c0-0.3,0-0.5,0.1-0.6s0.2-0.3,0.3-0.5c0.1-0.1,0.3-0.2,0.4-0.3c0.2-0.1,0.3-0.2,0.5-0.2
		c0.4-0.1,0.8-0.3,1.3-0.4c0.5-0.1,0.9-0.3,1.1-0.4v-0.6c0-0.1,0-0.2,0-0.4s0-0.3-0.1-0.4c-0.1-0.1-0.1-0.2-0.3-0.3
		s-0.3-0.1-0.5-0.1c-0.2,0-0.3,0-0.4,0.1c-0.1,0-0.2,0.1-0.3,0.1c0,0.1,0,0.2,0.1,0.4s0.1,0.3,0.1,0.5c0,0.1,0,0.1-0.1,0.2
		s-0.1,0.2-0.2,0.2c-0.1,0.1-0.2,0.1-0.3,0.2c-0.1,0-0.3,0.1-0.5,0.1c-0.3,0-0.6-0.1-0.7-0.2c-0.2-0.2-0.3-0.4-0.3-0.6
		c0-0.2,0.1-0.4,0.3-0.6s0.4-0.3,0.6-0.4c0.2-0.1,0.5-0.2,0.8-0.3s0.6-0.1,0.9-0.1c0.4,0,0.7,0,1,0.1s0.6,0.1,0.9,0.3
		c0.2,0.1,0.4,0.3,0.6,0.6s0.2,0.6,0.2,1c0,0.4,0,1,0,1.6s0,1,0,1.2c0,0.2,0,0.3,0.1,0.4s0.1,0.2,0.2,0.2c0.1,0,0.2,0,0.3,0.1
		s0.3,0,0.4,0V78.9z M204.4,75.9c-0.2,0.1-0.4,0.2-0.7,0.3c-0.2,0.1-0.4,0.2-0.5,0.3c-0.1,0.1-0.3,0.2-0.3,0.4
		c-0.1,0.2-0.1,0.4-0.1,0.6c0,0.3,0.1,0.5,0.2,0.7c0.1,0.1,0.3,0.2,0.5,0.2c0.2,0,0.4,0,0.5-0.1c0.1-0.1,0.3-0.2,0.4-0.3L204.4,75.9
		z"/>
	<path d="M210.4,79.2c-0.4,0-0.7-0.1-1.1-0.2s-0.6-0.2-0.8-0.4l-0.2,0.4h-0.5l-0.1-2.2h0.4c0.1,0.2,0.2,0.4,0.3,0.6s0.3,0.4,0.5,0.6
		c0.2,0.2,0.4,0.3,0.6,0.4s0.5,0.2,0.8,0.2c0.4,0,0.6-0.1,0.8-0.2s0.3-0.4,0.3-0.6c0-0.2,0-0.3-0.1-0.4s-0.2-0.2-0.3-0.3
		c-0.2-0.1-0.3-0.1-0.5-0.2s-0.4-0.1-0.7-0.2s-0.5-0.2-0.7-0.2s-0.4-0.2-0.6-0.4c-0.2-0.2-0.3-0.3-0.4-0.6s-0.2-0.5-0.2-0.8
		c0-0.6,0.2-1,0.7-1.3s1.1-0.5,1.8-0.5c0.4,0,0.7,0,1,0.1s0.5,0.2,0.8,0.2l0.1-0.3h0.4l0.1,2h-0.4c-0.1-0.4-0.4-0.8-0.7-1.1
		s-0.7-0.4-1.1-0.4c-0.3,0-0.5,0.1-0.7,0.2s-0.3,0.3-0.3,0.5c0,0.3,0.1,0.5,0.4,0.6c0.3,0.1,0.6,0.3,1.1,0.4
		c0.7,0.2,1.2,0.4,1.5,0.7c0.3,0.3,0.5,0.7,0.5,1.2c0,0.6-0.3,1.1-0.8,1.5S211.2,79.2,210.4,79.2z"/>
	<path d="M224.5,78.9l-2.9,0.2l-0.1-0.1v-0.5l0,0c-0.2,0.2-0.4,0.4-0.8,0.5s-0.7,0.2-1,0.2c-0.8,0-1.4-0.3-1.9-0.9S217,77,217,76.1
		c0-0.8,0.3-1.5,0.9-2.1s1.3-0.9,2.1-0.9c0.3,0,0.6,0,0.9,0.1s0.5,0.2,0.7,0.3v-1.9c0-0.1,0-0.3-0.1-0.4s-0.1-0.2-0.2-0.3
		c-0.1-0.1-0.3-0.1-0.5-0.2s-0.4-0.1-0.5-0.1v-0.4l3.2-0.2l0.1,0.1v7.7c0,0.1,0,0.3,0.1,0.4c0,0.1,0.1,0.2,0.2,0.2
		c0.1,0,0.2,0.1,0.4,0.1s0.3,0,0.4,0V78.9z M221.5,77.9v-3.3c0-0.1-0.1-0.2-0.1-0.3s-0.1-0.2-0.2-0.3c-0.1-0.1-0.2-0.2-0.3-0.2
		c-0.1-0.1-0.3-0.1-0.4-0.1c-0.4,0-0.7,0.2-1,0.7s-0.4,1.1-0.4,1.9c0,0.3,0,0.6,0.1,0.9s0.1,0.5,0.2,0.7s0.3,0.4,0.4,0.5
		c0.2,0.1,0.4,0.2,0.6,0.2c0.2,0,0.4,0,0.6-0.1S221.4,78,221.5,77.9z"/>
	<path d="M231.2,77.6c-0.1,0.2-0.3,0.4-0.5,0.6s-0.4,0.4-0.7,0.5c-0.3,0.1-0.5,0.3-0.8,0.3s-0.6,0.1-0.9,0.1c-0.6,0-1.1-0.1-1.5-0.2
		s-0.8-0.4-1-0.7s-0.5-0.6-0.6-1s-0.2-0.8-0.2-1.2c0-0.4,0.1-0.8,0.2-1.1s0.4-0.7,0.6-1c0.3-0.3,0.6-0.5,1-0.7s0.9-0.3,1.4-0.3
		c0.5,0,1,0.1,1.3,0.2s0.6,0.3,0.9,0.6c0.2,0.2,0.4,0.5,0.5,0.8s0.2,0.6,0.2,1v0.4h-4c0,0.8,0.2,1.4,0.5,1.8s0.8,0.6,1.5,0.6
		c0.4,0,0.7-0.1,1-0.3s0.5-0.5,0.8-0.8L231.2,77.6z M228.9,75.4c0-0.2,0-0.5,0-0.7s-0.1-0.4-0.1-0.6c-0.1-0.2-0.2-0.3-0.3-0.4
		s-0.3-0.1-0.4-0.1c-0.3,0-0.5,0.2-0.7,0.5s-0.3,0.8-0.3,1.4L228.9,75.4z"/>
	<path d="M234.5,79.2c-0.4,0-0.7-0.1-1.1-0.2s-0.6-0.2-0.8-0.4l-0.2,0.4h-0.5l-0.1-2.2h0.4c0.1,0.2,0.2,0.4,0.3,0.6s0.3,0.4,0.5,0.6
		c0.2,0.2,0.4,0.3,0.6,0.4s0.5,0.2,0.8,0.2c0.4,0,0.6-0.1,0.8-0.2s0.3-0.4,0.3-0.6c0-0.2,0-0.3-0.1-0.4s-0.2-0.2-0.3-0.3
		c-0.2-0.1-0.3-0.1-0.5-0.2s-0.4-0.1-0.7-0.2s-0.5-0.2-0.7-0.2s-0.4-0.2-0.6-0.4c-0.2-0.2-0.3-0.3-0.4-0.6s-0.2-0.5-0.2-0.8
		c0-0.6,0.2-1,0.7-1.3s1.1-0.5,1.8-0.5c0.4,0,0.7,0,1,0.1s0.5,0.2,0.8,0.2l0.1-0.3h0.4l0.1,2h-0.4c-0.1-0.4-0.4-0.8-0.7-1.1
		s-0.7-0.4-1.1-0.4c-0.3,0-0.5,0.1-0.7,0.2s-0.3,0.3-0.3,0.5c0,0.3,0.1,0.5,0.4,0.6c0.3,0.1,0.6,0.3,1.1,0.4
		c0.7,0.2,1.2,0.4,1.5,0.7c0.3,0.3,0.5,0.7,0.5,1.2c0,0.6-0.3,1.1-0.8,1.5S235.3,79.2,234.5,79.2z"/>
</g>
</svg>
