<?xml version="1.0" encoding="utf-8"?>
<!-- Generator: Adobe Illustrator 24.3.0, SVG Export Plug-In . SVG Version: 6.00 Build 0)  -->
<svg version="1.1" id="Capa_1" xmlns="http://www.w3.org/2000/svg" xmlns:xlink="http://www.w3.org/1999/xlink" x="0px" y="0px"
	 viewBox="0 0 224 150" style="enable-background:new 0 0 224 150;" xml:space="preserve">
<style type="text/css">
	.st0{display:none;}
	.st1{display:inline;fill:#FFFFFF;}
	.st2{display:inline;fill:#FF0000;}
	.st3{fill:#FFFFFF;stroke:#000000;stroke-miterlimit:10;}
	.st4{fill:none;}
	.st5{font-family:'Georgia-Bold';}
	.st6{font-size:16px;}
</style>
<g id="Layer_1" class="st0">
	<rect class="st1" width="224" height="150"/>
	<circle class="st2" cx="112" cy="75" r="2.5"/>
</g>
<path class="st3" d="M150,150l-42.3-35.7C66.3,114.3-1,116.4-1,75v0c0-41.4,39.1-37.9,80.5-37.9L150,0c41.4,0,75,33.6,75,75v0
	C225,116.4,191.4,150,150,150z"/>
<g id="Capa_2_1_">
	<rect x="2" y="47.6" class="st4" width="224" height="56.4"/>
	<text transform="matrix(1 0 0 1 18.6837 59.6858)" class="st5 st6">Escena 1: Antecedentes </text>
	<text transform="matrix(1 0 0 1 3.5837 78.8858)" class="st5 st6">Gámzeza y Tópaga: huellas </text>
	<text transform="matrix(1 0 0 1 46.8837 98.0858)" class="st5 st6">de una campaña</text>
</g>
</svg>
